<mxfile host="app.diagrams.net" agent="Mozilla/5.0 (Windows NT 10.0; Win64; x64) AppleWebKit/537.36 (KHTML, like Gecko) Chrome/130.0.0.0 Safari/537.36" version="24.8.4" pages="4">
  <diagram name="CONTEXT" id="b520641d-4fe3-3701-9064-5fc419738815">
    <mxGraphModel dx="1323" dy="700" grid="1" gridSize="10" guides="1" tooltips="1" connect="1" arrows="1" fold="1" page="1" pageScale="1" pageWidth="1100" pageHeight="850" background="none" math="0" shadow="0">
      <root>
        <mxCell id="0" />
        <mxCell id="1" parent="0" />
        <mxCell id="rEXUJqBVT0WppJA9xNoW-3" style="edgeStyle=orthogonalEdgeStyle;rounded=0;orthogonalLoop=1;jettySize=auto;html=1;exitX=1;exitY=0.75;exitDx=0;exitDy=0;entryX=0.25;entryY=1;entryDx=0;entryDy=0;" edge="1" parent="1" source="21ea969265ad0168-6" target="mDV_bWMtpIrEq9oTcO6n-8">
          <mxGeometry relative="1" as="geometry">
            <Array as="points">
              <mxPoint x="610" y="355" />
              <mxPoint x="914" y="355" />
            </Array>
          </mxGeometry>
        </mxCell>
        <mxCell id="rEXUJqBVT0WppJA9xNoW-5" value="&lt;font style=&quot;font-size: 14px;&quot;&gt;Managerial Report&lt;/font&gt;" style="edgeLabel;html=1;align=center;verticalAlign=middle;resizable=0;points=[];" vertex="1" connectable="0" parent="rEXUJqBVT0WppJA9xNoW-3">
          <mxGeometry x="-0.1039" y="-6" relative="1" as="geometry">
            <mxPoint x="-1" y="9" as="offset" />
          </mxGeometry>
        </mxCell>
        <mxCell id="21ea969265ad0168-6" value="&lt;font style=&quot;font-size: 24px;&quot;&gt;0&lt;/font&gt;" style="swimlane;html=1;fontStyle=0;childLayout=stackLayout;horizontal=1;startSize=26;fillColor=#e0e0e0;horizontalStack=0;resizeParent=1;resizeLast=0;collapsible=1;marginBottom=0;swimlaneFillColor=#ffffff;align=center;rounded=1;shadow=0;comic=0;labelBackgroundColor=none;strokeWidth=1;fontFamily=Verdana;fontSize=12" parent="1" vertex="1">
          <mxGeometry x="390" y="200" width="220" height="200" as="geometry" />
        </mxCell>
        <mxCell id="21ea969265ad0168-9" value="&lt;font style=&quot;&quot;&gt;&lt;br&gt;&lt;br&gt;&lt;font style=&quot;font-size: 24px;&quot;&gt;&lt;b&gt;Hospital Reservation System&lt;/b&gt;&lt;/font&gt;&lt;/font&gt;" style="text;html=1;strokeColor=none;fillColor=none;spacingLeft=4;spacingRight=4;whiteSpace=wrap;overflow=hidden;rotatable=0;points=[[0,0.5],[1,0.5]];portConstraint=eastwest;align=center;" parent="21ea969265ad0168-6" vertex="1">
          <mxGeometry y="26" width="220" height="134" as="geometry" />
        </mxCell>
        <mxCell id="21ea969265ad0168-39" value="&lt;span style=&quot;font-size: 14px;&quot;&gt;Reservation Number AND Credit Card &amp;amp; Identity Details&lt;/span&gt;" style="edgeStyle=orthogonalEdgeStyle;html=1;entryX=0.5;entryY=0;labelBackgroundColor=none;startFill=0;startSize=8;endFill=1;endSize=8;fontFamily=Verdana;fontSize=12;exitX=0.5;exitY=0;exitDx=0;exitDy=0;entryDx=0;entryDy=0;" parent="1" source="mDV_bWMtpIrEq9oTcO6n-7" target="21ea969265ad0168-6" edge="1">
          <mxGeometry x="0.053" y="10" relative="1" as="geometry">
            <Array as="points">
              <mxPoint x="141" y="130" />
              <mxPoint x="500" y="130" />
            </Array>
            <mxPoint x="362.9599999999998" y="38.80399999999986" as="sourcePoint" />
            <mxPoint x="560" y="139" as="targetPoint" />
            <mxPoint as="offset" />
          </mxGeometry>
        </mxCell>
        <mxCell id="mDV_bWMtpIrEq9oTcO6n-7" value="&lt;b&gt;Patient&lt;/b&gt;" style="rounded=0;whiteSpace=wrap;html=1;fontSize=24;" parent="1" vertex="1">
          <mxGeometry x="52.5" y="230" width="177.5" height="70" as="geometry" />
        </mxCell>
        <mxCell id="mDV_bWMtpIrEq9oTcO6n-8" value="&lt;b&gt;Manager&lt;/b&gt;" style="rounded=0;whiteSpace=wrap;html=1;fontSize=24;" parent="1" vertex="1">
          <mxGeometry x="870" y="265" width="177.5" height="70" as="geometry" />
        </mxCell>
        <mxCell id="mDV_bWMtpIrEq9oTcO6n-10" value="&lt;font style=&quot;font-size: 14px;&quot;&gt;Reservation Number&lt;/font&gt;" style="edgeStyle=orthogonalEdgeStyle;html=1;labelBackgroundColor=none;startFill=0;startSize=8;endFill=1;endSize=8;fontFamily=Verdana;fontSize=12;entryX=0.5;entryY=1;entryDx=0;entryDy=0;exitX=0.5;exitY=1;exitDx=0;exitDy=0;" parent="1" source="21ea969265ad0168-6" target="mDV_bWMtpIrEq9oTcO6n-7" edge="1">
          <mxGeometry x="-0.1648" y="10" relative="1" as="geometry">
            <Array as="points">
              <mxPoint x="500" y="470" />
              <mxPoint x="141" y="470" />
            </Array>
            <mxPoint x="160" y="380" as="sourcePoint" />
            <mxPoint x="460" y="460" as="targetPoint" />
            <mxPoint as="offset" />
          </mxGeometry>
        </mxCell>
        <mxCell id="mDV_bWMtpIrEq9oTcO6n-11" value="&lt;span style=&quot;font-size: 14px;&quot;&gt;Appointment Reservation Request (Desired_Date,Treatment Details)&lt;/span&gt;" style="edgeStyle=orthogonalEdgeStyle;html=1;labelBackgroundColor=none;startFill=0;startSize=8;endFill=1;endSize=8;fontFamily=Verdana;fontSize=12;exitX=0.25;exitY=0;exitDx=0;exitDy=0;" parent="1" source="mDV_bWMtpIrEq9oTcO6n-7" edge="1">
          <mxGeometry x="0.0543" y="10" relative="1" as="geometry">
            <Array as="points">
              <mxPoint x="100" y="230" />
              <mxPoint x="100" y="80" />
              <mxPoint x="530" y="80" />
              <mxPoint x="530" y="200" />
            </Array>
            <mxPoint x="100" y="220" as="sourcePoint" />
            <mxPoint x="530" y="200" as="targetPoint" />
            <mxPoint as="offset" />
          </mxGeometry>
        </mxCell>
        <mxCell id="mDV_bWMtpIrEq9oTcO6n-13" value="&lt;span style=&quot;font-size: 14px;&quot;&gt;Patient Details (Name,Surname,ID,Phone_number)&lt;/span&gt;" style="edgeStyle=orthogonalEdgeStyle;html=1;labelBackgroundColor=none;startFill=0;startSize=8;endFill=1;endSize=8;fontFamily=Verdana;fontSize=12;exitX=0.173;exitY=0.016;exitDx=0;exitDy=0;exitPerimeter=0;entryX=0.75;entryY=0;entryDx=0;entryDy=0;" parent="1" source="mDV_bWMtpIrEq9oTcO6n-7" target="21ea969265ad0168-6" edge="1">
          <mxGeometry x="0.0543" y="10" relative="1" as="geometry">
            <Array as="points">
              <mxPoint x="70" y="231" />
              <mxPoint x="70" y="40" />
              <mxPoint x="590" y="40" />
              <mxPoint x="590" y="200" />
            </Array>
            <mxPoint x="80.005" y="190.0599999999999" as="sourcePoint" />
            <mxPoint x="513.13" y="160.0599999999999" as="targetPoint" />
            <mxPoint as="offset" />
          </mxGeometry>
        </mxCell>
        <mxCell id="mDV_bWMtpIrEq9oTcO6n-14" value="&lt;span style=&quot;font-size: 14px;&quot;&gt;Registration Confirmation Message OR Mail OR Notification&lt;/span&gt;" style="edgeStyle=orthogonalEdgeStyle;html=1;labelBackgroundColor=none;startFill=0;startSize=8;endFill=1;endSize=8;fontFamily=Verdana;fontSize=12;entryX=0.25;entryY=1;entryDx=0;entryDy=0;exitX=0.75;exitY=1;exitDx=0;exitDy=0;" parent="1" source="21ea969265ad0168-6" target="mDV_bWMtpIrEq9oTcO6n-7" edge="1">
          <mxGeometry x="-0.1647" y="10" relative="1" as="geometry">
            <Array as="points">
              <mxPoint x="550" y="400" />
              <mxPoint x="550" y="510" />
              <mxPoint x="97" y="510" />
            </Array>
            <mxPoint x="510" y="410" as="sourcePoint" />
            <mxPoint x="151.25" y="310" as="targetPoint" />
            <mxPoint as="offset" />
          </mxGeometry>
        </mxCell>
        <mxCell id="mDV_bWMtpIrEq9oTcO6n-16" value="&lt;font style=&quot;font-size: 14px;&quot;&gt;Notification Message(SMS/Mail)&lt;/font&gt;" style="edgeStyle=orthogonalEdgeStyle;html=1;labelBackgroundColor=none;startFill=0;startSize=8;endFill=1;endSize=8;fontFamily=Verdana;fontSize=12;entryX=0.75;entryY=1;entryDx=0;entryDy=0;exitX=0.25;exitY=1;exitDx=0;exitDy=0;" parent="1" edge="1">
          <mxGeometry x="-0.2801" y="10" relative="1" as="geometry">
            <Array as="points">
              <mxPoint x="455" y="430" />
              <mxPoint x="190" y="430" />
              <mxPoint x="190" y="300" />
            </Array>
            <mxPoint x="455" y="400.0000000000001" as="sourcePoint" />
            <mxPoint x="195.625" y="300.0000000000001" as="targetPoint" />
            <mxPoint as="offset" />
          </mxGeometry>
        </mxCell>
        <mxCell id="rEXUJqBVT0WppJA9xNoW-2" style="edgeStyle=orthogonalEdgeStyle;rounded=0;orthogonalLoop=1;jettySize=auto;html=1;exitX=0.25;exitY=0;exitDx=0;exitDy=0;entryX=0.991;entryY=0.167;entryDx=0;entryDy=0;entryPerimeter=0;" edge="1" parent="1" source="mDV_bWMtpIrEq9oTcO6n-8" target="21ea969265ad0168-9">
          <mxGeometry relative="1" as="geometry">
            <Array as="points">
              <mxPoint x="914" y="243" />
            </Array>
          </mxGeometry>
        </mxCell>
        <mxCell id="rEXUJqBVT0WppJA9xNoW-4" value="&lt;font style=&quot;font-size: 14px;&quot;&gt;Report Request&lt;/font&gt;" style="edgeLabel;html=1;align=center;verticalAlign=middle;resizable=0;points=[];" vertex="1" connectable="0" parent="rEXUJqBVT0WppJA9xNoW-2">
          <mxGeometry x="0.1898" y="-2" relative="1" as="geometry">
            <mxPoint y="-11" as="offset" />
          </mxGeometry>
        </mxCell>
      </root>
    </mxGraphModel>
  </diagram>
  <diagram id="6GKHOqX0d2Wv-uRcxUcw" name="Level0 Diagram">
    <mxGraphModel dx="3154" dy="1877" grid="1" gridSize="10" guides="1" tooltips="1" connect="1" arrows="1" fold="1" page="1" pageScale="1" pageWidth="1169" pageHeight="827" math="0" shadow="0">
      <root>
        <mxCell id="0" />
        <mxCell id="1" parent="0" />
        <mxCell id="DxIsaSPpqVrPa1b8BSQt-5" style="edgeStyle=orthogonalEdgeStyle;rounded=0;orthogonalLoop=1;jettySize=auto;html=1;exitX=0.5;exitY=0;exitDx=0;exitDy=0;entryX=0;entryY=0.5;entryDx=0;entryDy=0;" edge="1" parent="1" source="l7Lidsd5snbglhTFRZbA-40" target="l7Lidsd5snbglhTFRZbA-42">
          <mxGeometry relative="1" as="geometry" />
        </mxCell>
        <mxCell id="VSr40eX_-onbkV218vIZ-1" value="&lt;span style=&quot;font-family: Verdana; font-size: 14px; background-color: rgb(251, 251, 251);&quot;&gt;Patient Details (Name,Surname,ID,Phone_number)&lt;/span&gt;" style="edgeLabel;html=1;align=center;verticalAlign=middle;resizable=0;points=[];" vertex="1" connectable="0" parent="DxIsaSPpqVrPa1b8BSQt-5">
          <mxGeometry x="0.0949" y="5" relative="1" as="geometry">
            <mxPoint x="58" y="-16" as="offset" />
          </mxGeometry>
        </mxCell>
        <mxCell id="T4VKWhaAilyvnrPeH9fY-4" style="edgeStyle=orthogonalEdgeStyle;rounded=0;orthogonalLoop=1;jettySize=auto;html=1;exitX=0.25;exitY=1;exitDx=0;exitDy=0;entryX=0;entryY=0.5;entryDx=0;entryDy=0;" edge="1" parent="1" source="l7Lidsd5snbglhTFRZbA-40" target="T4VKWhaAilyvnrPeH9fY-3">
          <mxGeometry relative="1" as="geometry" />
        </mxCell>
        <mxCell id="l7Lidsd5snbglhTFRZbA-40" value="Patient" style="rounded=0;whiteSpace=wrap;html=1;fontSize=24;" vertex="1" parent="1">
          <mxGeometry x="-130" width="177.5" height="70" as="geometry" />
        </mxCell>
        <mxCell id="OefiZn4mRbBglrdEU9bP-1" style="edgeStyle=orthogonalEdgeStyle;rounded=0;orthogonalLoop=1;jettySize=auto;html=1;exitX=0.75;exitY=1;exitDx=0;exitDy=0;entryX=1;entryY=0.25;entryDx=0;entryDy=0;" edge="1" parent="1" source="l7Lidsd5snbglhTFRZbA-41" target="l7Lidsd5snbglhTFRZbA-40">
          <mxGeometry relative="1" as="geometry">
            <Array as="points">
              <mxPoint x="427" y="17" />
            </Array>
          </mxGeometry>
        </mxCell>
        <mxCell id="OefiZn4mRbBglrdEU9bP-2" value="&lt;span style=&quot;font-family: Verdana; font-size: 14px; background-color: rgb(251, 251, 251);&quot;&gt;Registration Confirmation Message OR Mail OR Notification&lt;/span&gt;" style="edgeLabel;html=1;align=center;verticalAlign=middle;resizable=0;points=[];" vertex="1" connectable="0" parent="OefiZn4mRbBglrdEU9bP-1">
          <mxGeometry x="0.5398" y="-3" relative="1" as="geometry">
            <mxPoint x="95" y="-15" as="offset" />
          </mxGeometry>
        </mxCell>
        <mxCell id="l7Lidsd5snbglhTFRZbA-41" value="&lt;font style=&quot;font-size: 24px;&quot;&gt;1.0&lt;/font&gt;" style="swimlane;html=1;fontStyle=0;childLayout=stackLayout;horizontal=1;startSize=26;fillColor=#e0e0e0;horizontalStack=0;resizeParent=1;resizeLast=0;collapsible=1;marginBottom=0;swimlaneFillColor=#ffffff;align=center;rounded=1;shadow=0;comic=0;labelBackgroundColor=none;strokeWidth=1;fontFamily=Verdana;fontSize=12;arcSize=37;" vertex="1" parent="1">
          <mxGeometry x="330" y="-260" width="130" height="150" as="geometry" />
        </mxCell>
        <mxCell id="l7Lidsd5snbglhTFRZbA-42" value="&lt;font style=&quot;font-size: 20px;&quot;&gt;&lt;br&gt;&lt;br&gt;Registration&lt;/font&gt;" style="text;html=1;strokeColor=none;fillColor=none;spacingLeft=4;spacingRight=4;whiteSpace=wrap;overflow=hidden;rotatable=0;points=[[0,0.5],[1,0.5]];portConstraint=eastwest;align=center;" vertex="1" parent="l7Lidsd5snbglhTFRZbA-41">
          <mxGeometry y="26" width="130" height="110" as="geometry" />
        </mxCell>
        <mxCell id="K_MFd5SQAVq8rSm-554c-1" style="edgeStyle=orthogonalEdgeStyle;rounded=0;orthogonalLoop=1;jettySize=auto;html=1;exitX=0.5;exitY=1;exitDx=0;exitDy=0;entryX=1;entryY=0.25;entryDx=0;entryDy=0;" edge="1" parent="1" source="VSr40eX_-onbkV218vIZ-7" target="OefiZn4mRbBglrdEU9bP-4">
          <mxGeometry relative="1" as="geometry" />
        </mxCell>
        <mxCell id="K_MFd5SQAVq8rSm-554c-2" value="Patient Info" style="edgeLabel;html=1;align=center;verticalAlign=middle;resizable=0;points=[];fontSize=14;fontFamily=Verdana;" vertex="1" connectable="0" parent="K_MFd5SQAVq8rSm-554c-1">
          <mxGeometry x="0.434" relative="1" as="geometry">
            <mxPoint x="18" y="-11" as="offset" />
          </mxGeometry>
        </mxCell>
        <mxCell id="VSr40eX_-onbkV218vIZ-7" value="&lt;font style=&quot;font-size: 18px;&quot;&gt;Patient Records&lt;/font&gt;" style="shape=partialRectangle;whiteSpace=wrap;html=1;left=0;right=0;fillColor=none;fontSize=14;" vertex="1" parent="1">
          <mxGeometry x="800" y="-225" width="360" height="80" as="geometry" />
        </mxCell>
        <mxCell id="VSr40eX_-onbkV218vIZ-8" value="" style="line;strokeWidth=2;direction=south;html=1;" vertex="1" parent="1">
          <mxGeometry x="850" y="-225" width="10" height="80" as="geometry" />
        </mxCell>
        <mxCell id="VSr40eX_-onbkV218vIZ-9" value="&lt;font style=&quot;font-size: 18px;&quot;&gt;DS1&lt;/font&gt;" style="text;html=1;align=center;verticalAlign=middle;whiteSpace=wrap;rounded=0;" vertex="1" parent="1">
          <mxGeometry x="800" y="-200" width="60" height="30" as="geometry" />
        </mxCell>
        <mxCell id="VSr40eX_-onbkV218vIZ-10" value="" style="line;strokeWidth=2;direction=south;html=1;" vertex="1" parent="1">
          <mxGeometry x="800" y="-225" width="10" height="80" as="geometry" />
        </mxCell>
        <mxCell id="VSr40eX_-onbkV218vIZ-11" style="edgeStyle=orthogonalEdgeStyle;rounded=0;orthogonalLoop=1;jettySize=auto;html=1;exitX=1;exitY=0.5;exitDx=0;exitDy=0;entryX=0;entryY=0.75;entryDx=0;entryDy=0;" edge="1" parent="1" source="l7Lidsd5snbglhTFRZbA-42" target="VSr40eX_-onbkV218vIZ-9">
          <mxGeometry relative="1" as="geometry" />
        </mxCell>
        <mxCell id="VSr40eX_-onbkV218vIZ-12" value="&lt;font style=&quot;font-size: 14px;&quot; face=&quot;Verdana&quot;&gt;Validated Patient Details&lt;/font&gt;" style="text;html=1;align=center;verticalAlign=middle;resizable=0;points=[];autosize=1;strokeColor=none;fillColor=none;" vertex="1" parent="1">
          <mxGeometry x="515" y="-202" width="190" height="30" as="geometry" />
        </mxCell>
        <mxCell id="K_MFd5SQAVq8rSm-554c-4" style="edgeStyle=orthogonalEdgeStyle;rounded=0;orthogonalLoop=1;jettySize=auto;html=1;exitX=0.5;exitY=1;exitDx=0;exitDy=0;entryX=0.75;entryY=1;entryDx=0;entryDy=0;" edge="1" parent="1" source="OefiZn4mRbBglrdEU9bP-4" target="l7Lidsd5snbglhTFRZbA-40">
          <mxGeometry relative="1" as="geometry">
            <Array as="points">
              <mxPoint x="660" y="130" />
              <mxPoint x="3" y="130" />
            </Array>
          </mxGeometry>
        </mxCell>
        <mxCell id="K_MFd5SQAVq8rSm-554c-17" style="edgeStyle=orthogonalEdgeStyle;rounded=0;orthogonalLoop=1;jettySize=auto;html=1;exitX=0.75;exitY=1;exitDx=0;exitDy=0;entryX=0;entryY=0.75;entryDx=0;entryDy=0;" edge="1" parent="1" source="OefiZn4mRbBglrdEU9bP-4" target="K_MFd5SQAVq8rSm-554c-12">
          <mxGeometry relative="1" as="geometry" />
        </mxCell>
        <mxCell id="K_MFd5SQAVq8rSm-554c-18" value="&lt;font face=&quot;Verdana&quot; style=&quot;font-size: 14px;&quot;&gt;Reservation Details&lt;/font&gt;" style="edgeLabel;html=1;align=center;verticalAlign=middle;resizable=0;points=[];" vertex="1" connectable="0" parent="K_MFd5SQAVq8rSm-554c-17">
          <mxGeometry x="-0.0014" y="-3" relative="1" as="geometry">
            <mxPoint x="25" y="-13" as="offset" />
          </mxGeometry>
        </mxCell>
        <mxCell id="OefiZn4mRbBglrdEU9bP-4" value="&lt;font style=&quot;font-size: 24px;&quot;&gt;2.0&lt;/font&gt;" style="swimlane;html=1;fontStyle=0;childLayout=stackLayout;horizontal=1;startSize=26;fillColor=#e0e0e0;horizontalStack=0;resizeParent=1;resizeLast=0;collapsible=1;marginBottom=0;swimlaneFillColor=#ffffff;align=center;rounded=1;shadow=0;comic=0;labelBackgroundColor=none;strokeWidth=1;fontFamily=Verdana;fontSize=12;arcSize=37;" vertex="1" parent="1">
          <mxGeometry x="595" y="-60" width="130" height="150" as="geometry" />
        </mxCell>
        <mxCell id="OefiZn4mRbBglrdEU9bP-5" value="&lt;font face=&quot;Helvetica&quot; style=&quot;font-size: 20px;&quot;&gt;&lt;br&gt;&lt;br&gt;Appointment Reservation&lt;/font&gt;" style="text;html=1;strokeColor=none;fillColor=none;spacingLeft=4;spacingRight=4;whiteSpace=wrap;overflow=hidden;rotatable=0;points=[[0,0.5],[1,0.5]];portConstraint=eastwest;align=center;" vertex="1" parent="OefiZn4mRbBglrdEU9bP-4">
          <mxGeometry y="26" width="130" height="110" as="geometry" />
        </mxCell>
        <mxCell id="OefiZn4mRbBglrdEU9bP-9" style="edgeStyle=orthogonalEdgeStyle;rounded=0;orthogonalLoop=1;jettySize=auto;html=1;exitX=1;exitY=0.5;exitDx=0;exitDy=0;entryX=0.021;entryY=0.852;entryDx=0;entryDy=0;entryPerimeter=0;" edge="1" parent="1" source="l7Lidsd5snbglhTFRZbA-40" target="OefiZn4mRbBglrdEU9bP-5">
          <mxGeometry relative="1" as="geometry">
            <Array as="points">
              <mxPoint x="47" y="60" />
            </Array>
          </mxGeometry>
        </mxCell>
        <mxCell id="Di2qcOVpqw_b9VCmhxyv-1" value="&lt;span style=&quot;font-family: Verdana; font-size: 14px;&quot;&gt;Appointment Reservation Request (Desired_Date,Treatment Details)&lt;/span&gt;" style="text;html=1;align=center;verticalAlign=middle;resizable=0;points=[];autosize=1;strokeColor=none;fillColor=none;" vertex="1" parent="1">
          <mxGeometry x="70" y="60" width="510" height="30" as="geometry" />
        </mxCell>
        <mxCell id="K_MFd5SQAVq8rSm-554c-5" value="&lt;font face=&quot;Verdana&quot; style=&quot;font-size: 14px;&quot;&gt;Reservation Number&lt;/font&gt;" style="text;html=1;align=center;verticalAlign=middle;resizable=0;points=[];autosize=1;strokeColor=none;fillColor=none;" vertex="1" parent="1">
          <mxGeometry x="225" y="128" width="170" height="30" as="geometry" />
        </mxCell>
        <mxCell id="K_MFd5SQAVq8rSm-554c-10" style="edgeStyle=orthogonalEdgeStyle;rounded=0;orthogonalLoop=1;jettySize=auto;html=1;exitX=0.25;exitY=1;exitDx=0;exitDy=0;" edge="1" parent="1" source="K_MFd5SQAVq8rSm-554c-6" target="OefiZn4mRbBglrdEU9bP-5">
          <mxGeometry relative="1" as="geometry" />
        </mxCell>
        <mxCell id="K_MFd5SQAVq8rSm-554c-6" value="&lt;font style=&quot;font-size: 18px;&quot;&gt;Doctors&lt;/font&gt;" style="shape=partialRectangle;whiteSpace=wrap;html=1;left=0;right=0;fillColor=none;fontSize=14;" vertex="1" parent="1">
          <mxGeometry x="1210" y="-227" width="360" height="80" as="geometry" />
        </mxCell>
        <mxCell id="K_MFd5SQAVq8rSm-554c-7" value="" style="line;strokeWidth=2;direction=south;html=1;" vertex="1" parent="1">
          <mxGeometry x="1260" y="-227" width="10" height="80" as="geometry" />
        </mxCell>
        <mxCell id="K_MFd5SQAVq8rSm-554c-8" value="&lt;font style=&quot;font-size: 18px;&quot;&gt;DS2&lt;/font&gt;" style="text;html=1;align=center;verticalAlign=middle;whiteSpace=wrap;rounded=0;" vertex="1" parent="1">
          <mxGeometry x="1210" y="-202" width="60" height="30" as="geometry" />
        </mxCell>
        <mxCell id="K_MFd5SQAVq8rSm-554c-9" value="" style="line;strokeWidth=2;direction=south;html=1;" vertex="1" parent="1">
          <mxGeometry x="1210" y="-227" width="10" height="80" as="geometry" />
        </mxCell>
        <mxCell id="K_MFd5SQAVq8rSm-554c-11" value="&lt;font style=&quot;font-size: 14px;&quot; face=&quot;Verdana&quot;&gt;Avaiable Doctors Information&lt;/font&gt;" style="text;html=1;align=center;verticalAlign=middle;resizable=0;points=[];autosize=1;strokeColor=none;fillColor=none;" vertex="1" parent="1">
          <mxGeometry x="885" y="18" width="230" height="30" as="geometry" />
        </mxCell>
        <mxCell id="de3wUtjoJnlR29ZCa_YR-2" style="edgeStyle=orthogonalEdgeStyle;rounded=0;orthogonalLoop=1;jettySize=auto;html=1;exitX=0.5;exitY=1;exitDx=0;exitDy=0;entryX=1;entryY=0.25;entryDx=0;entryDy=0;" edge="1" parent="1" source="K_MFd5SQAVq8rSm-554c-12" target="T4VKWhaAilyvnrPeH9fY-2">
          <mxGeometry relative="1" as="geometry" />
        </mxCell>
        <mxCell id="de3wUtjoJnlR29ZCa_YR-3" value="&lt;font face=&quot;Verdana&quot; style=&quot;font-size: 14px;&quot;&gt;Reservation Details&lt;/font&gt;" style="edgeLabel;html=1;align=center;verticalAlign=middle;resizable=0;points=[];" vertex="1" connectable="0" parent="de3wUtjoJnlR29ZCa_YR-2">
          <mxGeometry x="0.2576" relative="1" as="geometry">
            <mxPoint x="-12" y="-11" as="offset" />
          </mxGeometry>
        </mxCell>
        <mxCell id="de3wUtjoJnlR29ZCa_YR-23" style="edgeStyle=orthogonalEdgeStyle;rounded=0;orthogonalLoop=1;jettySize=auto;html=1;exitX=0.75;exitY=1;exitDx=0;exitDy=0;entryX=0.25;entryY=1;entryDx=0;entryDy=0;" edge="1" parent="1" source="K_MFd5SQAVq8rSm-554c-12" target="de3wUtjoJnlR29ZCa_YR-20">
          <mxGeometry relative="1" as="geometry" />
        </mxCell>
        <mxCell id="de3wUtjoJnlR29ZCa_YR-24" value="&lt;font face=&quot;Verdana&quot; style=&quot;font-size: 14px;&quot;&gt;Reservation Informations&lt;/font&gt;" style="edgeLabel;html=1;align=center;verticalAlign=middle;resizable=0;points=[];" vertex="1" connectable="0" parent="de3wUtjoJnlR29ZCa_YR-23">
          <mxGeometry x="-0.3142" y="-6" relative="1" as="geometry">
            <mxPoint x="25" y="4" as="offset" />
          </mxGeometry>
        </mxCell>
        <mxCell id="K_MFd5SQAVq8rSm-554c-12" value="&lt;font style=&quot;font-size: 18px;&quot;&gt;Reservation&lt;/font&gt;" style="shape=partialRectangle;whiteSpace=wrap;html=1;left=0;right=0;fillColor=none;fontSize=14;" vertex="1" parent="1">
          <mxGeometry x="960" y="120" width="360" height="80" as="geometry" />
        </mxCell>
        <mxCell id="K_MFd5SQAVq8rSm-554c-13" value="" style="line;strokeWidth=2;direction=south;html=1;" vertex="1" parent="1">
          <mxGeometry x="1010" y="120" width="10" height="80" as="geometry" />
        </mxCell>
        <mxCell id="K_MFd5SQAVq8rSm-554c-14" value="&lt;font style=&quot;font-size: 18px;&quot;&gt;DS3&lt;/font&gt;" style="text;html=1;align=center;verticalAlign=middle;whiteSpace=wrap;rounded=0;" vertex="1" parent="1">
          <mxGeometry x="960" y="145" width="60" height="30" as="geometry" />
        </mxCell>
        <mxCell id="K_MFd5SQAVq8rSm-554c-15" value="" style="line;strokeWidth=2;direction=south;html=1;" vertex="1" parent="1">
          <mxGeometry x="960" y="120" width="10" height="80" as="geometry" />
        </mxCell>
        <mxCell id="_IVIQ540eQNw1XOfw2gQ-2" style="edgeStyle=orthogonalEdgeStyle;rounded=0;orthogonalLoop=1;jettySize=auto;html=1;exitX=0.5;exitY=1;exitDx=0;exitDy=0;entryX=0;entryY=1;entryDx=0;entryDy=0;" edge="1" parent="1" source="T4VKWhaAilyvnrPeH9fY-2" target="l7Lidsd5snbglhTFRZbA-40">
          <mxGeometry relative="1" as="geometry" />
        </mxCell>
        <mxCell id="T4VKWhaAilyvnrPeH9fY-2" value="&lt;font style=&quot;font-size: 24px;&quot;&gt;3.0&lt;/font&gt;" style="swimlane;html=1;fontStyle=0;childLayout=stackLayout;horizontal=1;startSize=26;fillColor=#e0e0e0;horizontalStack=0;resizeParent=1;resizeLast=0;collapsible=1;marginBottom=0;swimlaneFillColor=#ffffff;align=center;rounded=1;shadow=0;comic=0;labelBackgroundColor=none;strokeWidth=1;fontFamily=Verdana;fontSize=12;arcSize=37;" vertex="1" parent="1">
          <mxGeometry x="595" y="280" width="130" height="150" as="geometry" />
        </mxCell>
        <mxCell id="T4VKWhaAilyvnrPeH9fY-3" value="&lt;font face=&quot;Helvetica&quot; style=&quot;font-size: 20px;&quot;&gt;&lt;br&gt;&lt;br&gt;Billing Process&lt;/font&gt;" style="text;html=1;strokeColor=none;fillColor=none;spacingLeft=4;spacingRight=4;whiteSpace=wrap;overflow=hidden;rotatable=0;points=[[0,0.5],[1,0.5]];portConstraint=eastwest;align=center;" vertex="1" parent="T4VKWhaAilyvnrPeH9fY-2">
          <mxGeometry y="26" width="130" height="110" as="geometry" />
        </mxCell>
        <mxCell id="_IVIQ540eQNw1XOfw2gQ-1" value="&lt;span style=&quot;color: rgb(0, 0, 0); font-family: Verdana; font-size: 14px; font-style: normal; font-variant-ligatures: normal; font-variant-caps: normal; font-weight: 400; letter-spacing: normal; orphans: 2; text-align: center; text-indent: 0px; text-transform: none; widows: 2; word-spacing: 0px; -webkit-text-stroke-width: 0px; white-space: nowrap; background-color: rgb(251, 251, 251); text-decoration-thickness: initial; text-decoration-style: initial; text-decoration-color: initial; display: inline !important; float: none;&quot;&gt;Reservation Number AND Credit Card &amp;amp; Identity Details&lt;/span&gt;" style="text;whiteSpace=wrap;html=1;" vertex="1" parent="1">
          <mxGeometry x="-10" y="360" width="430" height="40" as="geometry" />
        </mxCell>
        <mxCell id="de3wUtjoJnlR29ZCa_YR-1" value="&lt;span style=&quot;font-family: Verdana; font-size: 14px;&quot;&gt;Notification Message(SMS/Mail)&lt;/span&gt;" style="text;html=1;align=center;verticalAlign=middle;resizable=0;points=[];autosize=1;strokeColor=none;fillColor=none;" vertex="1" parent="1">
          <mxGeometry x="70" y="450" width="250" height="30" as="geometry" />
        </mxCell>
        <mxCell id="yeaqFuFLDiHx9OBKDpiV-1" style="edgeStyle=orthogonalEdgeStyle;rounded=0;orthogonalLoop=1;jettySize=auto;html=1;exitX=0.75;exitY=0;exitDx=0;exitDy=0;entryX=0.75;entryY=1;entryDx=0;entryDy=0;" edge="1" parent="1" source="de3wUtjoJnlR29ZCa_YR-11" target="de3wUtjoJnlR29ZCa_YR-20">
          <mxGeometry relative="1" as="geometry">
            <Array as="points">
              <mxPoint x="1490" y="260" />
              <mxPoint x="1627" y="260" />
            </Array>
          </mxGeometry>
        </mxCell>
        <mxCell id="yeaqFuFLDiHx9OBKDpiV-2" value="&lt;font style=&quot;font-size: 14px;&quot;&gt;Billing Informations&lt;/font&gt;" style="edgeLabel;html=1;align=center;verticalAlign=middle;resizable=0;points=[];" vertex="1" connectable="0" parent="yeaqFuFLDiHx9OBKDpiV-1">
          <mxGeometry x="-0.0974" y="-6" relative="1" as="geometry">
            <mxPoint x="-17" y="4" as="offset" />
          </mxGeometry>
        </mxCell>
        <mxCell id="de3wUtjoJnlR29ZCa_YR-11" value="&lt;span style=&quot;font-size: 18px;&quot;&gt;Billing Records&lt;/span&gt;" style="shape=partialRectangle;whiteSpace=wrap;html=1;left=0;right=0;fillColor=none;fontSize=14;" vertex="1" parent="1">
          <mxGeometry x="1220" y="330" width="360" height="80" as="geometry" />
        </mxCell>
        <mxCell id="de3wUtjoJnlR29ZCa_YR-12" value="" style="line;strokeWidth=2;direction=south;html=1;" vertex="1" parent="1">
          <mxGeometry x="1270" y="330" width="10" height="80" as="geometry" />
        </mxCell>
        <mxCell id="de3wUtjoJnlR29ZCa_YR-13" value="&lt;font style=&quot;font-size: 18px;&quot;&gt;DS4&lt;/font&gt;" style="text;html=1;align=center;verticalAlign=middle;whiteSpace=wrap;rounded=0;" vertex="1" parent="1">
          <mxGeometry x="1220" y="355" width="60" height="30" as="geometry" />
        </mxCell>
        <mxCell id="de3wUtjoJnlR29ZCa_YR-14" value="" style="line;strokeWidth=2;direction=south;html=1;" vertex="1" parent="1">
          <mxGeometry x="1220" y="330" width="10" height="80" as="geometry" />
        </mxCell>
        <mxCell id="de3wUtjoJnlR29ZCa_YR-15" style="rounded=0;orthogonalLoop=1;jettySize=auto;html=1;exitX=1;exitY=0.5;exitDx=0;exitDy=0;entryX=0;entryY=0.5;entryDx=0;entryDy=0;" edge="1" parent="1" source="T4VKWhaAilyvnrPeH9fY-3" target="de3wUtjoJnlR29ZCa_YR-11">
          <mxGeometry relative="1" as="geometry" />
        </mxCell>
        <mxCell id="de3wUtjoJnlR29ZCa_YR-18" value="&lt;font face=&quot;Verdana&quot; style=&quot;font-size: 14px;&quot;&gt;Updated Billing Details&lt;/font&gt;" style="edgeLabel;html=1;align=center;verticalAlign=middle;resizable=0;points=[];" vertex="1" connectable="0" parent="de3wUtjoJnlR29ZCa_YR-15">
          <mxGeometry x="-0.1409" y="2" relative="1" as="geometry">
            <mxPoint x="13" y="-8" as="offset" />
          </mxGeometry>
        </mxCell>
        <mxCell id="de3wUtjoJnlR29ZCa_YR-19" value="Manager" style="rounded=0;whiteSpace=wrap;html=1;fontSize=24;" vertex="1" parent="1">
          <mxGeometry x="1950" width="177.5" height="70" as="geometry" />
        </mxCell>
        <mxCell id="de3wUtjoJnlR29ZCa_YR-20" value="&lt;font style=&quot;font-size: 24px;&quot;&gt;4.0&lt;/font&gt;" style="swimlane;html=1;fontStyle=0;childLayout=stackLayout;horizontal=1;startSize=26;fillColor=#e0e0e0;horizontalStack=0;resizeParent=1;resizeLast=0;collapsible=1;marginBottom=0;swimlaneFillColor=#ffffff;align=center;rounded=1;shadow=0;comic=0;labelBackgroundColor=none;strokeWidth=1;fontFamily=Verdana;fontSize=12;arcSize=37;" vertex="1" parent="1">
          <mxGeometry x="1530" y="-30" width="130" height="150" as="geometry" />
        </mxCell>
        <mxCell id="de3wUtjoJnlR29ZCa_YR-21" value="&lt;font face=&quot;Helvetica&quot; style=&quot;font-size: 20px;&quot;&gt;&lt;br&gt;&lt;br&gt;Report&lt;/font&gt;" style="text;html=1;strokeColor=none;fillColor=none;spacingLeft=4;spacingRight=4;whiteSpace=wrap;overflow=hidden;rotatable=0;points=[[0,0.5],[1,0.5]];portConstraint=eastwest;align=center;" vertex="1" parent="de3wUtjoJnlR29ZCa_YR-20">
          <mxGeometry y="26" width="130" height="110" as="geometry" />
        </mxCell>
        <mxCell id="de3wUtjoJnlR29ZCa_YR-26" style="edgeStyle=orthogonalEdgeStyle;rounded=0;orthogonalLoop=1;jettySize=auto;html=1;exitX=0.75;exitY=1;exitDx=0;exitDy=0;entryX=0.033;entryY=0.852;entryDx=0;entryDy=0;entryPerimeter=0;" edge="1" parent="1" source="K_MFd5SQAVq8rSm-554c-6" target="de3wUtjoJnlR29ZCa_YR-21">
          <mxGeometry relative="1" as="geometry" />
        </mxCell>
        <mxCell id="de3wUtjoJnlR29ZCa_YR-27" value="&lt;font style=&quot;font-size: 14px;&quot;&gt;Doctor&amp;nbsp;&lt;/font&gt;&lt;div style=&quot;font-size: 14px;&quot;&gt;&lt;font style=&quot;font-size: 14px;&quot;&gt;Info&lt;/font&gt;&lt;/div&gt;" style="edgeLabel;html=1;align=center;verticalAlign=middle;resizable=0;points=[];fontSize=14;fontFamily=Verdana;" vertex="1" connectable="0" parent="de3wUtjoJnlR29ZCa_YR-26">
          <mxGeometry x="-0.4961" relative="1" as="geometry">
            <mxPoint y="1" as="offset" />
          </mxGeometry>
        </mxCell>
        <mxCell id="yeaqFuFLDiHx9OBKDpiV-5" style="edgeStyle=orthogonalEdgeStyle;rounded=0;orthogonalLoop=1;jettySize=auto;html=1;exitX=0.75;exitY=0;exitDx=0;exitDy=0;entryX=1;entryY=1;entryDx=0;entryDy=0;" edge="1" parent="1" source="de3wUtjoJnlR29ZCa_YR-31" target="de3wUtjoJnlR29ZCa_YR-20">
          <mxGeometry relative="1" as="geometry">
            <Array as="points">
              <mxPoint x="1490" y="480" />
              <mxPoint x="1660" y="480" />
            </Array>
          </mxGeometry>
        </mxCell>
        <mxCell id="yeaqFuFLDiHx9OBKDpiV-6" value="&lt;font style=&quot;font-size: 14px;&quot; face=&quot;Verdana&quot;&gt;Patient Informations&lt;/font&gt;" style="edgeLabel;html=1;align=center;verticalAlign=middle;resizable=0;points=[];" vertex="1" connectable="0" parent="yeaqFuFLDiHx9OBKDpiV-5">
          <mxGeometry x="-0.5287" y="2" relative="1" as="geometry">
            <mxPoint x="-15" y="-13" as="offset" />
          </mxGeometry>
        </mxCell>
        <mxCell id="de3wUtjoJnlR29ZCa_YR-31" value="&lt;font style=&quot;font-size: 18px;&quot;&gt;Patient Records&lt;/font&gt;" style="shape=partialRectangle;whiteSpace=wrap;html=1;left=0;right=0;fillColor=none;fontSize=14;" vertex="1" parent="1">
          <mxGeometry x="1220" y="520" width="360" height="80" as="geometry" />
        </mxCell>
        <mxCell id="de3wUtjoJnlR29ZCa_YR-32" value="" style="line;strokeWidth=2;direction=south;html=1;" vertex="1" parent="1">
          <mxGeometry x="1270" y="520" width="10" height="80" as="geometry" />
        </mxCell>
        <mxCell id="de3wUtjoJnlR29ZCa_YR-33" value="&lt;font style=&quot;font-size: 18px;&quot;&gt;DS1&lt;/font&gt;" style="text;html=1;align=center;verticalAlign=middle;whiteSpace=wrap;rounded=0;" vertex="1" parent="1">
          <mxGeometry x="1220" y="545" width="60" height="30" as="geometry" />
        </mxCell>
        <mxCell id="de3wUtjoJnlR29ZCa_YR-35" style="edgeStyle=orthogonalEdgeStyle;rounded=0;orthogonalLoop=1;jettySize=auto;html=1;exitX=0.25;exitY=0.5;exitDx=0;exitDy=0;exitPerimeter=0;entryX=0.75;entryY=1;entryDx=0;entryDy=0;" edge="1" parent="1" source="de3wUtjoJnlR29ZCa_YR-34" target="T4VKWhaAilyvnrPeH9fY-2">
          <mxGeometry relative="1" as="geometry" />
        </mxCell>
        <mxCell id="de3wUtjoJnlR29ZCa_YR-36" value="&lt;font face=&quot;Verdana&quot; style=&quot;font-size: 14px;&quot;&gt;Patient Insurance Info AND Details&lt;/font&gt;" style="edgeLabel;html=1;align=center;verticalAlign=middle;resizable=0;points=[];" vertex="1" connectable="0" parent="de3wUtjoJnlR29ZCa_YR-35">
          <mxGeometry x="-0.1341" y="-3" relative="1" as="geometry">
            <mxPoint x="-37" y="-7" as="offset" />
          </mxGeometry>
        </mxCell>
        <mxCell id="de3wUtjoJnlR29ZCa_YR-34" value="" style="line;strokeWidth=2;direction=south;html=1;" vertex="1" parent="1">
          <mxGeometry x="1220" y="520" width="10" height="80" as="geometry" />
        </mxCell>
        <mxCell id="yeaqFuFLDiHx9OBKDpiV-9" style="edgeStyle=orthogonalEdgeStyle;rounded=0;orthogonalLoop=1;jettySize=auto;html=1;exitX=1;exitY=0.5;exitDx=0;exitDy=0;entryX=0.25;entryY=1;entryDx=0;entryDy=0;" edge="1" parent="1" source="de3wUtjoJnlR29ZCa_YR-21" target="de3wUtjoJnlR29ZCa_YR-19">
          <mxGeometry relative="1" as="geometry">
            <Array as="points">
              <mxPoint x="1660" y="90" />
              <mxPoint x="1995" y="90" />
            </Array>
          </mxGeometry>
        </mxCell>
        <mxCell id="yeaqFuFLDiHx9OBKDpiV-10" value="&lt;font style=&quot;font-size: 14px;&quot;&gt;Managerial Report&lt;/font&gt;" style="edgeLabel;html=1;align=center;verticalAlign=middle;resizable=0;points=[];" vertex="1" connectable="0" parent="yeaqFuFLDiHx9OBKDpiV-9">
          <mxGeometry x="0.0335" y="-4" relative="1" as="geometry">
            <mxPoint x="-13" y="12" as="offset" />
          </mxGeometry>
        </mxCell>
        <mxCell id="yeaqFuFLDiHx9OBKDpiV-14" style="edgeStyle=orthogonalEdgeStyle;rounded=0;orthogonalLoop=1;jettySize=auto;html=1;exitX=0.25;exitY=0;exitDx=0;exitDy=0;entryX=1.033;entryY=0.018;entryDx=0;entryDy=0;entryPerimeter=0;" edge="1" parent="1" source="de3wUtjoJnlR29ZCa_YR-19" target="de3wUtjoJnlR29ZCa_YR-21">
          <mxGeometry relative="1" as="geometry">
            <Array as="points">
              <mxPoint x="1995" y="-10" />
              <mxPoint x="1664" y="-10" />
            </Array>
          </mxGeometry>
        </mxCell>
        <mxCell id="yeaqFuFLDiHx9OBKDpiV-15" value="&lt;font style=&quot;font-size: 14px;&quot; face=&quot;Verdana&quot;&gt;Report Request&lt;/font&gt;" style="edgeLabel;html=1;align=center;verticalAlign=middle;resizable=0;points=[];" vertex="1" connectable="0" parent="yeaqFuFLDiHx9OBKDpiV-14">
          <mxGeometry x="0.0348" y="-3" relative="1" as="geometry">
            <mxPoint as="offset" />
          </mxGeometry>
        </mxCell>
      </root>
    </mxGraphModel>
  </diagram>
  <diagram id="TYINw700SpZYMzqwNqAB" name="Level 1 Billing Diagram">
    <mxGraphModel dx="2835" dy="2150" grid="1" gridSize="10" guides="1" tooltips="1" connect="1" arrows="1" fold="1" page="1" pageScale="1" pageWidth="850" pageHeight="1100" math="0" shadow="0">
      <root>
        <mxCell id="0" />
        <mxCell id="1" parent="0" />
        <mxCell id="mbzV-Il3M2rOH5388Gbf-8" value="" style="edgeStyle=orthogonalEdgeStyle;rounded=0;orthogonalLoop=1;jettySize=auto;html=1;" parent="1" source="C-X5bcRnbuTSE34vGZ7c-3" target="mbzV-Il3M2rOH5388Gbf-6" edge="1">
          <mxGeometry relative="1" as="geometry">
            <Array as="points">
              <mxPoint x="1105" y="-55" />
            </Array>
          </mxGeometry>
        </mxCell>
        <mxCell id="mbzV-Il3M2rOH5388Gbf-16" value="&lt;p style=&quot;line-height: 120%;&quot;&gt;&lt;font style=&quot;font-size: 14px;&quot; face=&quot;Verdana&quot;&gt;Valid Rezervation Number&lt;/font&gt;&lt;/p&gt;" style="edgeLabel;html=1;align=center;verticalAlign=middle;resizable=0;points=[];" parent="mbzV-Il3M2rOH5388Gbf-8" vertex="1" connectable="0">
          <mxGeometry x="-0.179" y="1" relative="1" as="geometry">
            <mxPoint x="68" y="-24" as="offset" />
          </mxGeometry>
        </mxCell>
        <mxCell id="mbzV-Il3M2rOH5388Gbf-55" style="edgeStyle=orthogonalEdgeStyle;rounded=0;orthogonalLoop=1;jettySize=auto;html=1;exitX=0.5;exitY=1;exitDx=0;exitDy=0;entryX=1;entryY=0.25;entryDx=0;entryDy=0;" parent="1" source="C-X5bcRnbuTSE34vGZ7c-3" target="mzFjmXA8fmOileqe2HMW-1" edge="1">
          <mxGeometry relative="1" as="geometry">
            <Array as="points">
              <mxPoint x="480" y="20" />
              <mxPoint x="480" y="40" />
              <mxPoint x="279" y="40" />
            </Array>
          </mxGeometry>
        </mxCell>
        <mxCell id="mbzV-Il3M2rOH5388Gbf-59" value="&lt;font style=&quot;font-size: 14px;&quot; face=&quot;Verdana&quot;&gt;EXCEPTION-Invalid Reservation Number-&lt;/font&gt;" style="edgeLabel;html=1;align=center;verticalAlign=middle;resizable=0;points=[];" parent="mbzV-Il3M2rOH5388Gbf-55" vertex="1" connectable="0">
          <mxGeometry x="-0.0502" y="3" relative="1" as="geometry">
            <mxPoint x="-37" y="12" as="offset" />
          </mxGeometry>
        </mxCell>
        <mxCell id="C-X5bcRnbuTSE34vGZ7c-3" value="&lt;font style=&quot;font-size: 24px;&quot;&gt;3.1&lt;/font&gt;" style="swimlane;html=1;fontStyle=0;childLayout=stackLayout;horizontal=1;startSize=26;fillColor=#e0e0e0;horizontalStack=0;resizeParent=1;resizeLast=0;collapsible=1;marginBottom=0;swimlaneFillColor=#ffffff;align=center;rounded=1;shadow=0;comic=0;labelBackgroundColor=none;strokeWidth=1;fontFamily=Verdana;fontSize=12;arcSize=50;" parent="1" vertex="1">
          <mxGeometry x="360" y="-130" width="130" height="150" as="geometry" />
        </mxCell>
        <mxCell id="C-X5bcRnbuTSE34vGZ7c-4" value="&lt;font style=&quot;font-size: 14px;&quot;&gt;&lt;br&gt;&lt;br&gt;CHECK RESERVATION NUMBER&lt;/font&gt;" style="text;html=1;strokeColor=none;fillColor=none;spacingLeft=4;spacingRight=4;whiteSpace=wrap;overflow=hidden;rotatable=0;points=[[0,0.5],[1,0.5]];portConstraint=eastwest;align=center;" parent="C-X5bcRnbuTSE34vGZ7c-3" vertex="1">
          <mxGeometry y="26" width="130" height="104" as="geometry" />
        </mxCell>
        <mxCell id="mzFjmXA8fmOileqe2HMW-1" value="Customer" style="rounded=0;whiteSpace=wrap;html=1;fontSize=24;" parent="1" vertex="1">
          <mxGeometry x="20" y="20" width="177.5" height="70" as="geometry" />
        </mxCell>
        <mxCell id="J6Rx4NE1bILtYqJOGbkr-2" value="&lt;span style=&quot;font-size: 14px;&quot;&gt;Reservation Number AND Credit Card &amp;amp; Identity Details&lt;/span&gt;" style="edgeStyle=orthogonalEdgeStyle;html=1;labelBackgroundColor=none;startFill=0;startSize=8;endFill=1;endSize=8;fontFamily=Verdana;fontSize=12;exitX=0.75;exitY=0;exitDx=0;exitDy=0;entryX=0.5;entryY=0;entryDx=0;entryDy=0;" parent="1" edge="1">
          <mxGeometry x="0.2898" y="10" relative="1" as="geometry">
            <Array as="points">
              <mxPoint x="30" y="20" />
              <mxPoint x="30" y="-200" />
              <mxPoint x="450" y="-200" />
              <mxPoint x="450" y="-130" />
            </Array>
            <mxPoint x="163.125" y="20" as="sourcePoint" />
            <mxPoint x="435" y="-130" as="targetPoint" />
            <mxPoint x="-1" as="offset" />
          </mxGeometry>
        </mxCell>
        <mxCell id="mbzV-Il3M2rOH5388Gbf-21" value="" style="edgeStyle=orthogonalEdgeStyle;rounded=0;orthogonalLoop=1;jettySize=auto;html=1;" parent="1" source="mbzV-Il3M2rOH5388Gbf-6" target="mbzV-Il3M2rOH5388Gbf-19" edge="1">
          <mxGeometry relative="1" as="geometry" />
        </mxCell>
        <mxCell id="mbzV-Il3M2rOH5388Gbf-22" value="&lt;font style=&quot;font-size: 14px;&quot; face=&quot;Verdana&quot;&gt;Verified&lt;/font&gt;" style="edgeLabel;html=1;align=center;verticalAlign=middle;resizable=0;points=[];" parent="mbzV-Il3M2rOH5388Gbf-21" vertex="1" connectable="0">
          <mxGeometry x="-0.2368" y="-3" relative="1" as="geometry">
            <mxPoint as="offset" />
          </mxGeometry>
        </mxCell>
        <mxCell id="mbzV-Il3M2rOH5388Gbf-61" style="edgeStyle=orthogonalEdgeStyle;rounded=0;orthogonalLoop=1;jettySize=auto;html=1;exitX=0;exitY=0.75;exitDx=0;exitDy=0;entryX=1;entryY=0.75;entryDx=0;entryDy=0;" parent="1" source="mbzV-Il3M2rOH5388Gbf-6" target="mzFjmXA8fmOileqe2HMW-1" edge="1">
          <mxGeometry relative="1" as="geometry">
            <Array as="points">
              <mxPoint x="198" y="83" />
            </Array>
          </mxGeometry>
        </mxCell>
        <mxCell id="mbzV-Il3M2rOH5388Gbf-62" value="&lt;font style=&quot;font-size: 14px;&quot; face=&quot;Verdana&quot;&gt;EXCEPTION-Invalid Credit Card Or Identity Card-&lt;/font&gt;" style="edgeLabel;html=1;align=center;verticalAlign=middle;resizable=0;points=[];" parent="mbzV-Il3M2rOH5388Gbf-61" vertex="1" connectable="0">
          <mxGeometry x="-0.0293" y="10" relative="1" as="geometry">
            <mxPoint x="1" as="offset" />
          </mxGeometry>
        </mxCell>
        <mxCell id="mbzV-Il3M2rOH5388Gbf-6" value="&lt;font style=&quot;font-size: 24px;&quot;&gt;3.2&lt;/font&gt;" style="swimlane;html=1;fontStyle=0;childLayout=stackLayout;horizontal=1;startSize=26;fillColor=#e0e0e0;horizontalStack=0;resizeParent=1;resizeLast=0;collapsible=1;marginBottom=0;swimlaneFillColor=#ffffff;align=center;rounded=1;shadow=0;comic=0;labelBackgroundColor=none;strokeWidth=1;fontFamily=Verdana;fontSize=12;arcSize=50;" parent="1" vertex="1">
          <mxGeometry x="1040" y="-30" width="130" height="150" as="geometry" />
        </mxCell>
        <mxCell id="mbzV-Il3M2rOH5388Gbf-7" value="&lt;font style=&quot;font-size: 14px;&quot;&gt;&lt;br&gt;&lt;br&gt;VERIFY CREDIT CARD AND IDENTITY CARD&lt;/font&gt;" style="text;html=1;strokeColor=none;fillColor=none;spacingLeft=4;spacingRight=4;whiteSpace=wrap;overflow=hidden;rotatable=0;points=[[0,0.5],[1,0.5]];portConstraint=eastwest;align=center;" parent="mbzV-Il3M2rOH5388Gbf-6" vertex="1">
          <mxGeometry y="26" width="130" height="104" as="geometry" />
        </mxCell>
        <mxCell id="mbzV-Il3M2rOH5388Gbf-17" style="edgeStyle=orthogonalEdgeStyle;rounded=0;orthogonalLoop=1;jettySize=auto;html=1;exitX=0;exitY=0.25;exitDx=0;exitDy=0;entryX=1;entryY=0;entryDx=0;entryDy=0;" parent="1" source="mbzV-Il3M2rOH5388Gbf-14" target="C-X5bcRnbuTSE34vGZ7c-3" edge="1">
          <mxGeometry relative="1" as="geometry" />
        </mxCell>
        <mxCell id="mbzV-Il3M2rOH5388Gbf-18" value="&lt;font style=&quot;font-size: 14px;&quot; face=&quot;Verdana&quot;&gt;Rezervation Details&lt;/font&gt;" style="edgeLabel;html=1;align=center;verticalAlign=middle;resizable=0;points=[];" parent="mbzV-Il3M2rOH5388Gbf-17" vertex="1" connectable="0">
          <mxGeometry x="-0.3285" y="8" relative="1" as="geometry">
            <mxPoint x="-25" y="-23" as="offset" />
          </mxGeometry>
        </mxCell>
        <mxCell id="mbzV-Il3M2rOH5388Gbf-14" value="&lt;font style=&quot;font-size: 18px;&quot;&gt;RESERVATION&lt;/font&gt;" style="shape=partialRectangle;whiteSpace=wrap;html=1;left=0;right=0;fillColor=none;fontSize=14;" parent="1" vertex="1">
          <mxGeometry x="730" y="-260" width="350" height="80" as="geometry" />
        </mxCell>
        <mxCell id="mbzV-Il3M2rOH5388Gbf-15" value="&lt;p style=&quot;line-height: 120%;&quot;&gt;&lt;font style=&quot;font-size: 14px;&quot; face=&quot;Verdana&quot;&gt;Rezervation Number&lt;/font&gt;&lt;/p&gt;" style="edgeStyle=orthogonalEdgeStyle;rounded=0;orthogonalLoop=1;jettySize=auto;html=1;exitX=1;exitY=0.5;exitDx=0;exitDy=0;entryX=0;entryY=0.5;entryDx=0;entryDy=0;" parent="1" source="C-X5bcRnbuTSE34vGZ7c-4" target="mbzV-Il3M2rOH5388Gbf-14" edge="1">
          <mxGeometry relative="1" as="geometry" />
        </mxCell>
        <mxCell id="ElC6io0e-Aifz4W5B57K-23" value="" style="edgeStyle=orthogonalEdgeStyle;rounded=0;orthogonalLoop=1;jettySize=auto;html=1;" edge="1" parent="1" source="mbzV-Il3M2rOH5388Gbf-19" target="ElC6io0e-Aifz4W5B57K-21">
          <mxGeometry relative="1" as="geometry" />
        </mxCell>
        <mxCell id="mbzV-Il3M2rOH5388Gbf-19" value="&lt;font style=&quot;font-size: 24px;&quot;&gt;3.3&lt;/font&gt;" style="swimlane;html=1;fontStyle=0;childLayout=stackLayout;horizontal=1;startSize=26;fillColor=#e0e0e0;horizontalStack=0;resizeParent=1;resizeLast=0;collapsible=1;marginBottom=0;swimlaneFillColor=#ffffff;align=center;rounded=1;shadow=0;comic=0;labelBackgroundColor=none;strokeWidth=1;fontFamily=Verdana;fontSize=12;arcSize=50;" parent="1" vertex="1">
          <mxGeometry x="1040" y="360" width="130" height="150" as="geometry" />
        </mxCell>
        <mxCell id="mbzV-Il3M2rOH5388Gbf-20" value="&lt;font style=&quot;font-size: 14px;&quot;&gt;&lt;br&gt;&lt;br&gt;CHECK PATIENTS INSURANCE INFO&lt;/font&gt;" style="text;html=1;strokeColor=none;fillColor=none;spacingLeft=4;spacingRight=4;whiteSpace=wrap;overflow=hidden;rotatable=0;points=[[0,0.5],[1,0.5]];portConstraint=eastwest;align=center;" parent="mbzV-Il3M2rOH5388Gbf-19" vertex="1">
          <mxGeometry y="26" width="130" height="104" as="geometry" />
        </mxCell>
        <mxCell id="7XoozR-qvnqnxNTQw4Gz-12" value="" style="line;strokeWidth=2;direction=south;html=1;" parent="1" vertex="1">
          <mxGeometry x="790" y="-260" width="10" height="80" as="geometry" />
        </mxCell>
        <mxCell id="7XoozR-qvnqnxNTQw4Gz-14" value="" style="line;strokeWidth=2;direction=south;html=1;" parent="1" vertex="1">
          <mxGeometry x="730" y="-260" width="10" height="80" as="geometry" />
        </mxCell>
        <mxCell id="7XoozR-qvnqnxNTQw4Gz-15" value="&#xa;&lt;span style=&quot;color: rgb(0, 0, 0); font-family: Helvetica; font-size: 18px; font-style: normal; font-variant-ligatures: normal; font-variant-caps: normal; font-weight: 400; letter-spacing: normal; orphans: 2; text-align: center; text-indent: 0px; text-transform: none; widows: 2; word-spacing: 0px; -webkit-text-stroke-width: 0px; white-space: normal; background-color: rgb(251, 251, 251); text-decoration-thickness: initial; text-decoration-style: initial; text-decoration-color: initial; display: inline !important; float: none;&quot;&gt;DS3&lt;span&gt;&amp;nbsp;&lt;/span&gt;&lt;/span&gt;&#xa;&#xa;" style="text;html=1;align=center;verticalAlign=middle;whiteSpace=wrap;rounded=0;" parent="1" vertex="1">
          <mxGeometry x="740" y="-235" width="60" height="30" as="geometry" />
        </mxCell>
        <mxCell id="ElC6io0e-Aifz4W5B57K-1" value="&lt;font style=&quot;font-size: 18px;&quot;&gt;PATIENT RECORDS&lt;/font&gt;" style="shape=partialRectangle;whiteSpace=wrap;html=1;left=0;right=0;fillColor=none;fontSize=14;" vertex="1" parent="1">
          <mxGeometry x="1270" y="-160" width="350" height="80" as="geometry" />
        </mxCell>
        <mxCell id="ElC6io0e-Aifz4W5B57K-2" value="" style="line;strokeWidth=2;direction=south;html=1;" vertex="1" parent="1">
          <mxGeometry x="1330" y="-160" width="10" height="80" as="geometry" />
        </mxCell>
        <mxCell id="ElC6io0e-Aifz4W5B57K-3" value="" style="line;strokeWidth=2;direction=south;html=1;" vertex="1" parent="1">
          <mxGeometry x="1270" y="-160" width="10" height="80" as="geometry" />
        </mxCell>
        <mxCell id="ElC6io0e-Aifz4W5B57K-4" value="&lt;br&gt;&lt;span style=&quot;color: rgb(0, 0, 0); font-family: Helvetica; font-size: 18px; font-style: normal; font-variant-ligatures: normal; font-variant-caps: normal; font-weight: 400; letter-spacing: normal; orphans: 2; text-align: center; text-indent: 0px; text-transform: none; widows: 2; word-spacing: 0px; -webkit-text-stroke-width: 0px; white-space: normal; background-color: rgb(251, 251, 251); text-decoration-thickness: initial; text-decoration-style: initial; text-decoration-color: initial; display: inline !important; float: none;&quot;&gt;DS1&lt;/span&gt;" style="text;html=1;align=center;verticalAlign=middle;whiteSpace=wrap;rounded=0;" vertex="1" parent="1">
          <mxGeometry x="1280" y="-135" width="60" height="30" as="geometry" />
        </mxCell>
        <mxCell id="ElC6io0e-Aifz4W5B57K-5" style="edgeStyle=orthogonalEdgeStyle;rounded=0;orthogonalLoop=1;jettySize=auto;html=1;exitX=1;exitY=0.5;exitDx=0;exitDy=0;entryX=0.75;entryY=1;entryDx=0;entryDy=0;" edge="1" parent="1" source="mbzV-Il3M2rOH5388Gbf-7" target="ElC6io0e-Aifz4W5B57K-1">
          <mxGeometry relative="1" as="geometry" />
        </mxCell>
        <mxCell id="ElC6io0e-Aifz4W5B57K-6" value="&lt;font style=&quot;font-size: 14px;&quot; face=&quot;Verdana&quot;&gt;Credit Card And İdentity Details Query&amp;nbsp;&lt;/font&gt;" style="edgeLabel;html=1;align=center;verticalAlign=middle;resizable=0;points=[];" vertex="1" connectable="0" parent="ElC6io0e-Aifz4W5B57K-5">
          <mxGeometry x="-0.4258" relative="1" as="geometry">
            <mxPoint x="40" y="12" as="offset" />
          </mxGeometry>
        </mxCell>
        <mxCell id="ElC6io0e-Aifz4W5B57K-7" style="edgeStyle=orthogonalEdgeStyle;rounded=0;orthogonalLoop=1;jettySize=auto;html=1;exitX=0.5;exitY=1;exitDx=0;exitDy=0;entryX=1.051;entryY=0.087;entryDx=0;entryDy=0;entryPerimeter=0;" edge="1" parent="1" source="ElC6io0e-Aifz4W5B57K-1" target="mbzV-Il3M2rOH5388Gbf-7">
          <mxGeometry relative="1" as="geometry">
            <Array as="points">
              <mxPoint x="1480" y="-80" />
              <mxPoint x="1480" y="5" />
            </Array>
          </mxGeometry>
        </mxCell>
        <mxCell id="ElC6io0e-Aifz4W5B57K-8" value="&lt;font face=&quot;Verdana&quot; style=&quot;font-size: 14px;&quot;&gt;Verification Status (approve or reject)&lt;/font&gt;" style="edgeLabel;html=1;align=center;verticalAlign=middle;resizable=0;points=[];" vertex="1" connectable="0" parent="ElC6io0e-Aifz4W5B57K-7">
          <mxGeometry x="0.481" relative="1" as="geometry">
            <mxPoint x="48" y="-15" as="offset" />
          </mxGeometry>
        </mxCell>
        <mxCell id="ElC6io0e-Aifz4W5B57K-9" value="&lt;font style=&quot;font-size: 18px;&quot;&gt;PATIENT RECORDS&lt;/font&gt;" style="shape=partialRectangle;whiteSpace=wrap;html=1;left=0;right=0;fillColor=none;fontSize=14;" vertex="1" parent="1">
          <mxGeometry x="810" y="640" width="350" height="80" as="geometry" />
        </mxCell>
        <mxCell id="ElC6io0e-Aifz4W5B57K-10" value="" style="line;strokeWidth=2;direction=south;html=1;" vertex="1" parent="1">
          <mxGeometry x="870" y="640" width="10" height="80" as="geometry" />
        </mxCell>
        <mxCell id="ElC6io0e-Aifz4W5B57K-17" style="edgeStyle=orthogonalEdgeStyle;rounded=0;orthogonalLoop=1;jettySize=auto;html=1;exitX=0;exitY=0.5;exitDx=0;exitDy=0;exitPerimeter=0;entryX=0;entryY=1;entryDx=0;entryDy=0;" edge="1" parent="1" source="ElC6io0e-Aifz4W5B57K-11" target="mbzV-Il3M2rOH5388Gbf-19">
          <mxGeometry relative="1" as="geometry" />
        </mxCell>
        <mxCell id="ElC6io0e-Aifz4W5B57K-18" value="&lt;font face=&quot;Verdana&quot; style=&quot;font-size: 14px;&quot;&gt;Patient Insurance&amp;nbsp;&lt;/font&gt;&lt;div&gt;&lt;font face=&quot;Verdana&quot; style=&quot;font-size: 14px;&quot;&gt;Info Details&lt;/font&gt;&lt;/div&gt;" style="edgeLabel;html=1;align=center;verticalAlign=middle;resizable=0;points=[];" vertex="1" connectable="0" parent="ElC6io0e-Aifz4W5B57K-17">
          <mxGeometry x="-0.0704" relative="1" as="geometry">
            <mxPoint x="15" y="-5" as="offset" />
          </mxGeometry>
        </mxCell>
        <mxCell id="ElC6io0e-Aifz4W5B57K-11" value="" style="line;strokeWidth=2;direction=south;html=1;" vertex="1" parent="1">
          <mxGeometry x="810" y="640" width="10" height="80" as="geometry" />
        </mxCell>
        <mxCell id="ElC6io0e-Aifz4W5B57K-12" value="&lt;br&gt;&lt;span style=&quot;color: rgb(0, 0, 0); font-family: Helvetica; font-size: 18px; font-style: normal; font-variant-ligatures: normal; font-variant-caps: normal; font-weight: 400; letter-spacing: normal; orphans: 2; text-align: center; text-indent: 0px; text-transform: none; widows: 2; word-spacing: 0px; -webkit-text-stroke-width: 0px; white-space: normal; background-color: rgb(251, 251, 251); text-decoration-thickness: initial; text-decoration-style: initial; text-decoration-color: initial; display: inline !important; float: none;&quot;&gt;DS1&lt;/span&gt;" style="text;html=1;align=center;verticalAlign=middle;whiteSpace=wrap;rounded=0;" vertex="1" parent="1">
          <mxGeometry x="820" y="665" width="60" height="30" as="geometry" />
        </mxCell>
        <mxCell id="ElC6io0e-Aifz4W5B57K-14" style="edgeStyle=orthogonalEdgeStyle;rounded=0;orthogonalLoop=1;jettySize=auto;html=1;exitX=1;exitY=0.5;exitDx=0;exitDy=0;entryX=1;entryY=0.5;entryDx=0;entryDy=0;" edge="1" parent="1" source="mbzV-Il3M2rOH5388Gbf-20" target="ElC6io0e-Aifz4W5B57K-9">
          <mxGeometry relative="1" as="geometry" />
        </mxCell>
        <mxCell id="ElC6io0e-Aifz4W5B57K-15" value="&lt;font face=&quot;Verdana&quot; style=&quot;font-size: 14px;&quot;&gt;Patient Insurance&lt;/font&gt;&lt;div style=&quot;font-size: 14px;&quot;&gt;&lt;font face=&quot;NElVBrl4rz1MXJ_s5yJR&quot; style=&quot;font-size: 14px;&quot;&gt;Info Details&lt;/font&gt;&lt;/div&gt;&lt;div style=&quot;font-size: 14px;&quot;&gt;&lt;font face=&quot;NElVBrl4rz1MXJ_s5yJR&quot; style=&quot;font-size: 14px;&quot;&gt;Request&lt;/font&gt;&lt;/div&gt;" style="edgeLabel;html=1;align=center;verticalAlign=middle;resizable=0;points=[];" vertex="1" connectable="0" parent="ElC6io0e-Aifz4W5B57K-14">
          <mxGeometry x="-0.1473" y="5" relative="1" as="geometry">
            <mxPoint y="7" as="offset" />
          </mxGeometry>
        </mxCell>
        <mxCell id="ElC6io0e-Aifz4W5B57K-28" style="edgeStyle=orthogonalEdgeStyle;rounded=0;orthogonalLoop=1;jettySize=auto;html=1;exitX=0.75;exitY=1;exitDx=0;exitDy=0;entryX=1;entryY=0.25;entryDx=0;entryDy=0;" edge="1" parent="1" source="ElC6io0e-Aifz4W5B57K-21" target="ElC6io0e-Aifz4W5B57K-24">
          <mxGeometry relative="1" as="geometry">
            <Array as="points">
              <mxPoint x="760" y="510" />
              <mxPoint x="760" y="660" />
            </Array>
          </mxGeometry>
        </mxCell>
        <mxCell id="ElC6io0e-Aifz4W5B57K-29" value="&lt;font face=&quot;Verdana&quot; style=&quot;font-size: 14px;&quot;&gt;Reservation&lt;/font&gt;&lt;div style=&quot;font-size: 14px;&quot;&gt;&lt;font face=&quot;elhQ8je0aMe04cajGqHP&quot; style=&quot;font-size: 14px;&quot;&gt;Details&lt;/font&gt;&lt;/div&gt;&lt;div style=&quot;font-size: 14px;&quot;&gt;&lt;font face=&quot;elhQ8je0aMe04cajGqHP&quot; style=&quot;font-size: 14px;&quot;&gt;Query&lt;/font&gt;&lt;/div&gt;" style="edgeLabel;html=1;align=center;verticalAlign=middle;resizable=0;points=[];" vertex="1" connectable="0" parent="ElC6io0e-Aifz4W5B57K-28">
          <mxGeometry x="-0.0108" relative="1" as="geometry">
            <mxPoint as="offset" />
          </mxGeometry>
        </mxCell>
        <mxCell id="ElC6io0e-Aifz4W5B57K-34" value="" style="edgeStyle=orthogonalEdgeStyle;rounded=0;orthogonalLoop=1;jettySize=auto;html=1;" edge="1" parent="1" source="ElC6io0e-Aifz4W5B57K-21" target="ElC6io0e-Aifz4W5B57K-32">
          <mxGeometry relative="1" as="geometry" />
        </mxCell>
        <mxCell id="ElC6io0e-Aifz4W5B57K-35" value="&lt;font style=&quot;font-size: 14px;&quot; face=&quot;Verdana&quot;&gt;Calculated Bill Amount&lt;/font&gt;" style="edgeLabel;html=1;align=center;verticalAlign=middle;resizable=0;points=[];" vertex="1" connectable="0" parent="ElC6io0e-Aifz4W5B57K-34">
          <mxGeometry x="0.0505" y="-2" relative="1" as="geometry">
            <mxPoint x="-1" as="offset" />
          </mxGeometry>
        </mxCell>
        <mxCell id="ElC6io0e-Aifz4W5B57K-21" value="&lt;font style=&quot;font-size: 24px;&quot;&gt;3.4&lt;/font&gt;" style="swimlane;html=1;fontStyle=0;childLayout=stackLayout;horizontal=1;startSize=26;fillColor=#e0e0e0;horizontalStack=0;resizeParent=1;resizeLast=0;collapsible=1;marginBottom=0;swimlaneFillColor=#ffffff;align=center;rounded=1;shadow=0;comic=0;labelBackgroundColor=none;strokeWidth=1;fontFamily=Verdana;fontSize=12;arcSize=50;" vertex="1" parent="1">
          <mxGeometry x="600" y="360" width="130" height="150" as="geometry" />
        </mxCell>
        <mxCell id="ElC6io0e-Aifz4W5B57K-22" value="&lt;font style=&quot;font-size: 14px;&quot;&gt;&lt;br&gt;&lt;br&gt;CALCULATE BILLING AMOUNT&lt;/font&gt;" style="text;html=1;strokeColor=none;fillColor=none;spacingLeft=4;spacingRight=4;whiteSpace=wrap;overflow=hidden;rotatable=0;points=[[0,0.5],[1,0.5]];portConstraint=eastwest;align=center;" vertex="1" parent="ElC6io0e-Aifz4W5B57K-21">
          <mxGeometry y="26" width="130" height="104" as="geometry" />
        </mxCell>
        <mxCell id="ElC6io0e-Aifz4W5B57K-30" style="edgeStyle=orthogonalEdgeStyle;rounded=0;orthogonalLoop=1;jettySize=auto;html=1;exitX=0.25;exitY=0;exitDx=0;exitDy=0;entryX=0;entryY=1;entryDx=0;entryDy=0;" edge="1" parent="1" source="ElC6io0e-Aifz4W5B57K-24" target="ElC6io0e-Aifz4W5B57K-21">
          <mxGeometry relative="1" as="geometry" />
        </mxCell>
        <mxCell id="ElC6io0e-Aifz4W5B57K-31" value="&lt;font face=&quot;Verdana&quot; style=&quot;font-size: 14px;&quot;&gt;Reservation Details&lt;/font&gt;" style="edgeLabel;html=1;align=center;verticalAlign=middle;resizable=0;points=[];" vertex="1" connectable="0" parent="ElC6io0e-Aifz4W5B57K-30">
          <mxGeometry x="-0.0693" y="-2" relative="1" as="geometry">
            <mxPoint y="1" as="offset" />
          </mxGeometry>
        </mxCell>
        <mxCell id="ElC6io0e-Aifz4W5B57K-24" value="&lt;font style=&quot;font-size: 18px;&quot;&gt;RESERVATION&lt;/font&gt;" style="shape=partialRectangle;whiteSpace=wrap;html=1;left=0;right=0;fillColor=none;fontSize=14;" vertex="1" parent="1">
          <mxGeometry x="390" y="640" width="350" height="80" as="geometry" />
        </mxCell>
        <mxCell id="ElC6io0e-Aifz4W5B57K-25" value="" style="line;strokeWidth=2;direction=south;html=1;" vertex="1" parent="1">
          <mxGeometry x="450" y="640" width="10" height="80" as="geometry" />
        </mxCell>
        <mxCell id="ElC6io0e-Aifz4W5B57K-26" value="" style="line;strokeWidth=2;direction=south;html=1;" vertex="1" parent="1">
          <mxGeometry x="390" y="640" width="10" height="80" as="geometry" />
        </mxCell>
        <mxCell id="ElC6io0e-Aifz4W5B57K-27" value="&#xa;&lt;span style=&quot;color: rgb(0, 0, 0); font-family: Helvetica; font-size: 18px; font-style: normal; font-variant-ligatures: normal; font-variant-caps: normal; font-weight: 400; letter-spacing: normal; orphans: 2; text-align: center; text-indent: 0px; text-transform: none; widows: 2; word-spacing: 0px; -webkit-text-stroke-width: 0px; white-space: normal; background-color: rgb(251, 251, 251); text-decoration-thickness: initial; text-decoration-style: initial; text-decoration-color: initial; display: inline !important; float: none;&quot;&gt;DS3&lt;span&gt;&amp;nbsp;&lt;/span&gt;&lt;/span&gt;&#xa;&#xa;" style="text;html=1;align=center;verticalAlign=middle;whiteSpace=wrap;rounded=0;" vertex="1" parent="1">
          <mxGeometry x="400" y="665" width="60" height="30" as="geometry" />
        </mxCell>
        <mxCell id="ElC6io0e-Aifz4W5B57K-41" style="edgeStyle=orthogonalEdgeStyle;rounded=0;orthogonalLoop=1;jettySize=auto;html=1;exitX=1;exitY=1;exitDx=0;exitDy=0;entryX=1;entryY=0.5;entryDx=0;entryDy=0;" edge="1" parent="1" source="ElC6io0e-Aifz4W5B57K-32" target="ElC6io0e-Aifz4W5B57K-36">
          <mxGeometry relative="1" as="geometry" />
        </mxCell>
        <mxCell id="ElC6io0e-Aifz4W5B57K-42" value="&lt;font face=&quot;Verdana&quot; style=&quot;font-size: 14px;&quot;&gt;Payment Information&lt;/font&gt;&lt;div style=&quot;font-size: 14px;&quot;&gt;&lt;font face=&quot;qj4WjD21wphY832pGA4K&quot; style=&quot;font-size: 14px;&quot;&gt;Details Requested&lt;/font&gt;&lt;/div&gt;" style="edgeLabel;html=1;align=center;verticalAlign=middle;resizable=0;points=[];" vertex="1" connectable="0" parent="ElC6io0e-Aifz4W5B57K-41">
          <mxGeometry x="-0.381" y="2" relative="1" as="geometry">
            <mxPoint as="offset" />
          </mxGeometry>
        </mxCell>
        <mxCell id="ElC6io0e-Aifz4W5B57K-47" value="" style="edgeStyle=orthogonalEdgeStyle;rounded=0;orthogonalLoop=1;jettySize=auto;html=1;" edge="1" parent="1" source="ElC6io0e-Aifz4W5B57K-32" target="ElC6io0e-Aifz4W5B57K-45">
          <mxGeometry relative="1" as="geometry" />
        </mxCell>
        <mxCell id="ElC6io0e-Aifz4W5B57K-50" value="&lt;font face=&quot;Verdana&quot; style=&quot;font-size: 14px;&quot;&gt;Payment Confirmation&lt;/font&gt;" style="edgeLabel;html=1;align=center;verticalAlign=middle;resizable=0;points=[];" vertex="1" connectable="0" parent="ElC6io0e-Aifz4W5B57K-47">
          <mxGeometry x="0.0417" y="5" relative="1" as="geometry">
            <mxPoint x="-1" y="-20" as="offset" />
          </mxGeometry>
        </mxCell>
        <mxCell id="ElC6io0e-Aifz4W5B57K-32" value="&lt;font style=&quot;font-size: 24px;&quot;&gt;3.5&lt;/font&gt;" style="swimlane;html=1;fontStyle=0;childLayout=stackLayout;horizontal=1;startSize=26;fillColor=#e0e0e0;horizontalStack=0;resizeParent=1;resizeLast=0;collapsible=1;marginBottom=0;swimlaneFillColor=#ffffff;align=center;rounded=1;shadow=0;comic=0;labelBackgroundColor=none;strokeWidth=1;fontFamily=Verdana;fontSize=12;arcSize=50;" vertex="1" parent="1">
          <mxGeometry x="140" y="360" width="130" height="150" as="geometry" />
        </mxCell>
        <mxCell id="ElC6io0e-Aifz4W5B57K-33" value="&lt;font style=&quot;font-size: 14px;&quot;&gt;&lt;br&gt;&lt;br&gt;PROCESS PAYMENT&lt;/font&gt;" style="text;html=1;strokeColor=none;fillColor=none;spacingLeft=4;spacingRight=4;whiteSpace=wrap;overflow=hidden;rotatable=0;points=[[0,0.5],[1,0.5]];portConstraint=eastwest;align=center;" vertex="1" parent="ElC6io0e-Aifz4W5B57K-32">
          <mxGeometry y="26" width="130" height="104" as="geometry" />
        </mxCell>
        <mxCell id="ElC6io0e-Aifz4W5B57K-48" style="edgeStyle=orthogonalEdgeStyle;rounded=0;orthogonalLoop=1;jettySize=auto;html=1;exitX=0;exitY=0;exitDx=0;exitDy=0;entryX=0.25;entryY=1;entryDx=0;entryDy=0;" edge="1" parent="1" source="ElC6io0e-Aifz4W5B57K-36" target="ElC6io0e-Aifz4W5B57K-32">
          <mxGeometry relative="1" as="geometry" />
        </mxCell>
        <mxCell id="ElC6io0e-Aifz4W5B57K-49" value="&lt;span style=&quot;font-family: Verdana; font-size: 14px;&quot;&gt;Payment Information Details &amp;amp; Confirmation&lt;/span&gt;" style="edgeLabel;html=1;align=center;verticalAlign=middle;resizable=0;points=[];" vertex="1" connectable="0" parent="ElC6io0e-Aifz4W5B57K-48">
          <mxGeometry x="-0.0217" y="-5" relative="1" as="geometry">
            <mxPoint x="-12" y="-20" as="offset" />
          </mxGeometry>
        </mxCell>
        <mxCell id="ElC6io0e-Aifz4W5B57K-36" value="&lt;span style=&quot;font-size: 18px;&quot;&gt;BILL RECORDS&lt;/span&gt;" style="shape=partialRectangle;whiteSpace=wrap;html=1;left=0;right=0;fillColor=none;fontSize=14;" vertex="1" parent="1">
          <mxGeometry x="-120" y="640" width="350" height="80" as="geometry" />
        </mxCell>
        <mxCell id="ElC6io0e-Aifz4W5B57K-37" value="" style="line;strokeWidth=2;direction=south;html=1;" vertex="1" parent="1">
          <mxGeometry x="-60" y="640" width="10" height="80" as="geometry" />
        </mxCell>
        <mxCell id="ElC6io0e-Aifz4W5B57K-38" value="" style="line;strokeWidth=2;direction=south;html=1;" vertex="1" parent="1">
          <mxGeometry x="-120" y="640" width="10" height="80" as="geometry" />
        </mxCell>
        <mxCell id="ElC6io0e-Aifz4W5B57K-39" value="&lt;br&gt;&lt;span style=&quot;color: rgb(0, 0, 0); font-family: Helvetica; font-size: 18px; font-style: normal; font-variant-ligatures: normal; font-variant-caps: normal; font-weight: 400; letter-spacing: normal; orphans: 2; text-align: center; text-indent: 0px; text-transform: none; widows: 2; word-spacing: 0px; -webkit-text-stroke-width: 0px; white-space: normal; background-color: rgb(251, 251, 251); text-decoration-thickness: initial; text-decoration-style: initial; text-decoration-color: initial; display: inline !important; float: none;&quot;&gt;DS4&lt;/span&gt;" style="text;html=1;align=center;verticalAlign=middle;whiteSpace=wrap;rounded=0;" vertex="1" parent="1">
          <mxGeometry x="-110" y="665" width="60" height="30" as="geometry" />
        </mxCell>
        <mxCell id="ElC6io0e-Aifz4W5B57K-54" style="edgeStyle=orthogonalEdgeStyle;rounded=0;orthogonalLoop=1;jettySize=auto;html=1;exitX=0.25;exitY=1;exitDx=0;exitDy=0;entryX=0;entryY=0.5;entryDx=0;entryDy=0;" edge="1" parent="1" source="ElC6io0e-Aifz4W5B57K-45" target="ElC6io0e-Aifz4W5B57K-36">
          <mxGeometry relative="1" as="geometry" />
        </mxCell>
        <mxCell id="ElC6io0e-Aifz4W5B57K-55" value="&lt;font style=&quot;font-size: 14px;&quot; face=&quot;Verdana&quot;&gt;Updated Billing Details&lt;/font&gt;" style="edgeLabel;html=1;align=center;verticalAlign=middle;resizable=0;points=[];" vertex="1" connectable="0" parent="ElC6io0e-Aifz4W5B57K-54">
          <mxGeometry x="0.2229" y="2" relative="1" as="geometry">
            <mxPoint x="8" y="-13" as="offset" />
          </mxGeometry>
        </mxCell>
        <mxCell id="ElC6io0e-Aifz4W5B57K-58" value="" style="edgeStyle=orthogonalEdgeStyle;rounded=0;orthogonalLoop=1;jettySize=auto;html=1;" edge="1" parent="1" source="ElC6io0e-Aifz4W5B57K-45" target="ElC6io0e-Aifz4W5B57K-56">
          <mxGeometry relative="1" as="geometry" />
        </mxCell>
        <mxCell id="ElC6io0e-Aifz4W5B57K-59" value="&lt;font style=&quot;font-size: 14px;&quot; face=&quot;Verdana&quot;&gt;Payment Confirmation&lt;/font&gt;" style="edgeLabel;html=1;align=center;verticalAlign=middle;resizable=0;points=[];" vertex="1" connectable="0" parent="ElC6io0e-Aifz4W5B57K-58">
          <mxGeometry x="0.1682" y="3" relative="1" as="geometry">
            <mxPoint x="18" y="15" as="offset" />
          </mxGeometry>
        </mxCell>
        <mxCell id="ElC6io0e-Aifz4W5B57K-45" value="&lt;font style=&quot;font-size: 24px;&quot;&gt;3.6&lt;/font&gt;" style="swimlane;html=1;fontStyle=0;childLayout=stackLayout;horizontal=1;startSize=26;fillColor=#e0e0e0;horizontalStack=0;resizeParent=1;resizeLast=0;collapsible=1;marginBottom=0;swimlaneFillColor=#ffffff;align=center;rounded=1;shadow=0;comic=0;labelBackgroundColor=none;strokeWidth=1;fontFamily=Verdana;fontSize=12;arcSize=50;" vertex="1" parent="1">
          <mxGeometry x="-390" y="360" width="130" height="150" as="geometry" />
        </mxCell>
        <mxCell id="ElC6io0e-Aifz4W5B57K-46" value="&lt;font style=&quot;font-size: 14px;&quot;&gt;&lt;br&gt;&lt;br&gt;UPDATE BILL RECORDS&amp;nbsp;&lt;/font&gt;" style="text;html=1;strokeColor=none;fillColor=none;spacingLeft=4;spacingRight=4;whiteSpace=wrap;overflow=hidden;rotatable=0;points=[[0,0.5],[1,0.5]];portConstraint=eastwest;align=center;" vertex="1" parent="ElC6io0e-Aifz4W5B57K-45">
          <mxGeometry y="26" width="130" height="104" as="geometry" />
        </mxCell>
        <mxCell id="ElC6io0e-Aifz4W5B57K-52" style="edgeStyle=orthogonalEdgeStyle;rounded=0;orthogonalLoop=1;jettySize=auto;html=1;exitX=0;exitY=0.5;exitDx=0;exitDy=0;entryX=0.25;entryY=1;entryDx=0;entryDy=0;" edge="1" parent="1" source="ElC6io0e-Aifz4W5B57K-33" target="mzFjmXA8fmOileqe2HMW-1">
          <mxGeometry relative="1" as="geometry">
            <Array as="points">
              <mxPoint x="140" y="430" />
              <mxPoint x="64" y="430" />
            </Array>
          </mxGeometry>
        </mxCell>
        <mxCell id="ElC6io0e-Aifz4W5B57K-53" value="&lt;font face=&quot;Verdana&quot; style=&quot;font-size: 14px;&quot;&gt;EXCEPTION&amp;nbsp;&lt;/font&gt;&lt;div&gt;&lt;font face=&quot;Verdana&quot; style=&quot;font-size: 14px;&quot;&gt;- Payment Unseccesfull-&lt;/font&gt;&lt;/div&gt;" style="edgeLabel;html=1;align=center;verticalAlign=middle;resizable=0;points=[];" vertex="1" connectable="0" parent="ElC6io0e-Aifz4W5B57K-52">
          <mxGeometry x="0.327" y="-7" relative="1" as="geometry">
            <mxPoint x="-1" y="-13" as="offset" />
          </mxGeometry>
        </mxCell>
        <mxCell id="ElC6io0e-Aifz4W5B57K-56" value="&lt;font style=&quot;font-size: 24px;&quot;&gt;3.7&lt;/font&gt;" style="swimlane;html=1;fontStyle=0;childLayout=stackLayout;horizontal=1;startSize=26;fillColor=#e0e0e0;horizontalStack=0;resizeParent=1;resizeLast=0;collapsible=1;marginBottom=0;swimlaneFillColor=#ffffff;align=center;rounded=1;shadow=0;comic=0;labelBackgroundColor=none;strokeWidth=1;fontFamily=Verdana;fontSize=12;arcSize=50;" vertex="1" parent="1">
          <mxGeometry x="-390" y="-4" width="130" height="150" as="geometry" />
        </mxCell>
        <mxCell id="ElC6io0e-Aifz4W5B57K-57" value="&lt;font style=&quot;font-size: 14px;&quot;&gt;&lt;br&gt;&lt;br&gt;NOTIFY PATIENT&lt;/font&gt;" style="text;html=1;strokeColor=none;fillColor=none;spacingLeft=4;spacingRight=4;whiteSpace=wrap;overflow=hidden;rotatable=0;points=[[0,0.5],[1,0.5]];portConstraint=eastwest;align=center;" vertex="1" parent="ElC6io0e-Aifz4W5B57K-56">
          <mxGeometry y="26" width="130" height="104" as="geometry" />
        </mxCell>
        <mxCell id="ElC6io0e-Aifz4W5B57K-60" style="edgeStyle=orthogonalEdgeStyle;rounded=0;orthogonalLoop=1;jettySize=auto;html=1;exitX=1;exitY=0.5;exitDx=0;exitDy=0;entryX=0;entryY=0.75;entryDx=0;entryDy=0;" edge="1" parent="1" source="ElC6io0e-Aifz4W5B57K-57" target="mzFjmXA8fmOileqe2HMW-1">
          <mxGeometry relative="1" as="geometry" />
        </mxCell>
        <mxCell id="OnP9vNdJxBLycBu_ka8Y-1" value="&lt;span style=&quot;font-family: Verdana; font-size: 14px; background-color: rgb(251, 251, 251);&quot;&gt;Notification Message(SMS/Mail)&lt;/span&gt;" style="edgeLabel;html=1;align=center;verticalAlign=middle;resizable=0;points=[];" vertex="1" connectable="0" parent="ElC6io0e-Aifz4W5B57K-60">
          <mxGeometry x="-0.1001" y="-4" relative="1" as="geometry">
            <mxPoint x="-1" y="-23" as="offset" />
          </mxGeometry>
        </mxCell>
      </root>
    </mxGraphModel>
  </diagram>
  <diagram name="Level 1 Return Diagram" id="MFfIhB0-rxsMkWT8AtkP">
    <mxGraphModel dx="2294" dy="1864" grid="1" gridSize="10" guides="1" tooltips="1" connect="1" arrows="1" fold="1" page="1" pageScale="1" pageWidth="850" pageHeight="1100" math="0" shadow="0">
      <root>
        <mxCell id="nilfGd-R48GBVORvdBlC-0" />
        <mxCell id="nilfGd-R48GBVORvdBlC-1" parent="nilfGd-R48GBVORvdBlC-0" />
        <mxCell id="nilfGd-R48GBVORvdBlC-4" style="edgeStyle=orthogonalEdgeStyle;rounded=0;orthogonalLoop=1;jettySize=auto;html=1;exitX=0.5;exitY=1;exitDx=0;exitDy=0;entryX=1;entryY=0.25;entryDx=0;entryDy=0;" parent="nilfGd-R48GBVORvdBlC-1" source="nilfGd-R48GBVORvdBlC-6" target="nilfGd-R48GBVORvdBlC-8" edge="1">
          <mxGeometry relative="1" as="geometry">
            <Array as="points">
              <mxPoint x="480" y="20" />
              <mxPoint x="480" y="38" />
            </Array>
          </mxGeometry>
        </mxCell>
        <mxCell id="nilfGd-R48GBVORvdBlC-5" value="&lt;font style=&quot;font-size: 14px;&quot; face=&quot;Verdana&quot;&gt;EXCEPTION-Invalid Reservation Number-&lt;/font&gt;" style="edgeLabel;html=1;align=center;verticalAlign=middle;resizable=0;points=[];" parent="nilfGd-R48GBVORvdBlC-4" vertex="1" connectable="0">
          <mxGeometry x="-0.0502" y="3" relative="1" as="geometry">
            <mxPoint x="-22" y="12" as="offset" />
          </mxGeometry>
        </mxCell>
        <mxCell id="nilfGd-R48GBVORvdBlC-6" value="&lt;font style=&quot;font-size: 24px;&quot;&gt;3.1&lt;/font&gt;" style="swimlane;html=1;fontStyle=0;childLayout=stackLayout;horizontal=1;startSize=26;fillColor=#e0e0e0;horizontalStack=0;resizeParent=1;resizeLast=0;collapsible=1;marginBottom=0;swimlaneFillColor=#ffffff;align=center;rounded=1;shadow=0;comic=0;labelBackgroundColor=none;strokeWidth=1;fontFamily=Verdana;fontSize=12;arcSize=50;" parent="nilfGd-R48GBVORvdBlC-1" vertex="1">
          <mxGeometry x="380" y="-130" width="130" height="150" as="geometry" />
        </mxCell>
        <mxCell id="nilfGd-R48GBVORvdBlC-7" value="&lt;font style=&quot;font-size: 14px;&quot;&gt;&lt;br&gt;&lt;br&gt;CHECK RESERVATION&amp;nbsp;&lt;/font&gt;" style="text;html=1;strokeColor=none;fillColor=none;spacingLeft=4;spacingRight=4;whiteSpace=wrap;overflow=hidden;rotatable=0;points=[[0,0.5],[1,0.5]];portConstraint=eastwest;align=center;" parent="nilfGd-R48GBVORvdBlC-6" vertex="1">
          <mxGeometry y="26" width="130" height="104" as="geometry" />
        </mxCell>
        <mxCell id="nilfGd-R48GBVORvdBlC-8" value="Customer" style="rounded=0;whiteSpace=wrap;html=1;fontSize=24;" parent="nilfGd-R48GBVORvdBlC-1" vertex="1">
          <mxGeometry x="20" y="20" width="177.5" height="70" as="geometry" />
        </mxCell>
        <mxCell id="nilfGd-R48GBVORvdBlC-9" value="&lt;font style=&quot;font-size: 14px;&quot;&gt;Vehicle Final Condition Details&lt;/font&gt;" style="edgeStyle=orthogonalEdgeStyle;html=1;labelBackgroundColor=none;startFill=0;startSize=8;endFill=1;endSize=8;fontFamily=Verdana;fontSize=12;exitX=0.75;exitY=0;exitDx=0;exitDy=0;entryX=0.5;entryY=0;entryDx=0;entryDy=0;" parent="nilfGd-R48GBVORvdBlC-1" edge="1">
          <mxGeometry x="0.2898" y="10" relative="1" as="geometry">
            <Array as="points">
              <mxPoint x="30" y="20" />
              <mxPoint x="30" y="-200" />
              <mxPoint x="450" y="-200" />
              <mxPoint x="450" y="-130" />
            </Array>
            <mxPoint x="163.125" y="20" as="sourcePoint" />
            <mxPoint x="435" y="-130" as="targetPoint" />
            <mxPoint x="-1" as="offset" />
          </mxGeometry>
        </mxCell>
        <mxCell id="nilfGd-R48GBVORvdBlC-12" style="edgeStyle=orthogonalEdgeStyle;rounded=0;orthogonalLoop=1;jettySize=auto;html=1;exitX=0;exitY=0.75;exitDx=0;exitDy=0;entryX=1;entryY=0.75;entryDx=0;entryDy=0;" parent="nilfGd-R48GBVORvdBlC-1" source="nilfGd-R48GBVORvdBlC-14" target="nilfGd-R48GBVORvdBlC-8" edge="1">
          <mxGeometry relative="1" as="geometry">
            <Array as="points">
              <mxPoint x="198" y="83" />
            </Array>
          </mxGeometry>
        </mxCell>
        <mxCell id="nilfGd-R48GBVORvdBlC-13" value="&lt;font style=&quot;font-size: 14px;&quot; face=&quot;Verdana&quot;&gt;EXCEPTION-Invalid Return Date and Time-&lt;/font&gt;" style="edgeLabel;html=1;align=center;verticalAlign=middle;resizable=0;points=[];" parent="nilfGd-R48GBVORvdBlC-12" vertex="1" connectable="0">
          <mxGeometry x="-0.0293" y="10" relative="1" as="geometry">
            <mxPoint x="1" as="offset" />
          </mxGeometry>
        </mxCell>
        <mxCell id="46o_ksrozuxmIPPl0I-C-16" value="" style="edgeStyle=orthogonalEdgeStyle;rounded=0;orthogonalLoop=1;jettySize=auto;html=1;" parent="nilfGd-R48GBVORvdBlC-1" source="nilfGd-R48GBVORvdBlC-14" target="46o_ksrozuxmIPPl0I-C-14" edge="1">
          <mxGeometry relative="1" as="geometry">
            <Array as="points">
              <mxPoint x="1450" y="-50" />
            </Array>
          </mxGeometry>
        </mxCell>
        <mxCell id="46o_ksrozuxmIPPl0I-C-17" value="&lt;font style=&quot;font-size: 14px;&quot; face=&quot;Verdana&quot;&gt;Verified Date&lt;/font&gt;" style="edgeLabel;html=1;align=center;verticalAlign=middle;resizable=0;points=[];" parent="46o_ksrozuxmIPPl0I-C-16" vertex="1" connectable="0">
          <mxGeometry x="0.5771" y="1" relative="1" as="geometry">
            <mxPoint y="1" as="offset" />
          </mxGeometry>
        </mxCell>
        <mxCell id="nilfGd-R48GBVORvdBlC-14" value="&lt;font style=&quot;font-size: 24px;&quot;&gt;3.2&lt;/font&gt;" style="swimlane;html=1;fontStyle=0;childLayout=stackLayout;horizontal=1;startSize=26;fillColor=#e0e0e0;horizontalStack=0;resizeParent=1;resizeLast=0;collapsible=1;marginBottom=0;swimlaneFillColor=#ffffff;align=center;rounded=1;shadow=0;comic=0;labelBackgroundColor=none;strokeWidth=1;fontFamily=Verdana;fontSize=12;arcSize=50;" parent="nilfGd-R48GBVORvdBlC-1" vertex="1">
          <mxGeometry x="900" y="-130" width="130" height="150" as="geometry" />
        </mxCell>
        <mxCell id="nilfGd-R48GBVORvdBlC-15" value="&lt;font style=&quot;font-size: 14px;&quot;&gt;&lt;br&gt;&lt;br&gt;VERIFY RETURN DATE AND TIME&lt;/font&gt;" style="text;html=1;strokeColor=none;fillColor=none;spacingLeft=4;spacingRight=4;whiteSpace=wrap;overflow=hidden;rotatable=0;points=[[0,0.5],[1,0.5]];portConstraint=eastwest;align=center;" parent="nilfGd-R48GBVORvdBlC-14" vertex="1">
          <mxGeometry y="26" width="130" height="104" as="geometry" />
        </mxCell>
        <mxCell id="46o_ksrozuxmIPPl0I-C-3" style="edgeStyle=orthogonalEdgeStyle;rounded=0;orthogonalLoop=1;jettySize=auto;html=1;exitX=0;exitY=0.25;exitDx=0;exitDy=0;entryX=0.75;entryY=0;entryDx=0;entryDy=0;" parent="nilfGd-R48GBVORvdBlC-1" source="nilfGd-R48GBVORvdBlC-18" target="nilfGd-R48GBVORvdBlC-6" edge="1">
          <mxGeometry relative="1" as="geometry" />
        </mxCell>
        <mxCell id="46o_ksrozuxmIPPl0I-C-4" value="&lt;font style=&quot;font-size: 14px;&quot; face=&quot;Verdana&quot;&gt;Initial Condition Of Car&lt;/font&gt;" style="edgeLabel;html=1;align=center;verticalAlign=middle;resizable=0;points=[];" parent="46o_ksrozuxmIPPl0I-C-3" vertex="1" connectable="0">
          <mxGeometry x="-0.0759" y="2" relative="1" as="geometry">
            <mxPoint y="-12" as="offset" />
          </mxGeometry>
        </mxCell>
        <mxCell id="nilfGd-R48GBVORvdBlC-18" value="&lt;font style=&quot;font-size: 18px;&quot;&gt;RESERVATION&lt;/font&gt;" style="shape=partialRectangle;whiteSpace=wrap;html=1;left=0;right=0;fillColor=none;fontSize=14;" parent="nilfGd-R48GBVORvdBlC-1" vertex="1">
          <mxGeometry x="730" y="-260" width="350" height="80" as="geometry" />
        </mxCell>
        <mxCell id="nilfGd-R48GBVORvdBlC-19" value="&lt;p style=&quot;line-height: 120%;&quot;&gt;&lt;font style=&quot;font-size: 14px;&quot; face=&quot;Verdana&quot;&gt;Rezervation Number&lt;/font&gt;&lt;/p&gt;" style="edgeStyle=orthogonalEdgeStyle;rounded=0;orthogonalLoop=1;jettySize=auto;html=1;exitX=1;exitY=0.5;exitDx=0;exitDy=0;entryX=0;entryY=0.5;entryDx=0;entryDy=0;" parent="nilfGd-R48GBVORvdBlC-1" source="nilfGd-R48GBVORvdBlC-7" target="nilfGd-R48GBVORvdBlC-18" edge="1">
          <mxGeometry relative="1" as="geometry" />
        </mxCell>
        <mxCell id="nilfGd-R48GBVORvdBlC-43" value="" style="line;strokeWidth=2;direction=south;html=1;" parent="nilfGd-R48GBVORvdBlC-1" vertex="1">
          <mxGeometry x="800" y="270" width="100" height="80" as="geometry" />
        </mxCell>
        <mxCell id="nilfGd-R48GBVORvdBlC-47" value="" style="line;strokeWidth=2;direction=south;html=1;" parent="nilfGd-R48GBVORvdBlC-1" vertex="1">
          <mxGeometry x="790" y="-260" width="10" height="80" as="geometry" />
        </mxCell>
        <mxCell id="nilfGd-R48GBVORvdBlC-48" value="" style="line;strokeWidth=2;direction=south;html=1;" parent="nilfGd-R48GBVORvdBlC-1" vertex="1">
          <mxGeometry x="730" y="-260" width="10" height="80" as="geometry" />
        </mxCell>
        <mxCell id="nilfGd-R48GBVORvdBlC-49" value="&#xa;&lt;span style=&quot;color: rgb(0, 0, 0); font-family: Helvetica; font-size: 18px; font-style: normal; font-variant-ligatures: normal; font-variant-caps: normal; font-weight: 400; letter-spacing: normal; orphans: 2; text-align: center; text-indent: 0px; text-transform: none; widows: 2; word-spacing: 0px; -webkit-text-stroke-width: 0px; white-space: normal; background-color: rgb(251, 251, 251); text-decoration-thickness: initial; text-decoration-style: initial; text-decoration-color: initial; display: inline !important; float: none;&quot;&gt;DS3&lt;span&gt;&amp;nbsp;&lt;/span&gt;&lt;/span&gt;&#xa;&#xa;" style="text;html=1;align=center;verticalAlign=middle;whiteSpace=wrap;rounded=0;" parent="nilfGd-R48GBVORvdBlC-1" vertex="1">
          <mxGeometry x="740" y="-235" width="60" height="30" as="geometry" />
        </mxCell>
        <mxCell id="46o_ksrozuxmIPPl0I-C-1" style="edgeStyle=orthogonalEdgeStyle;rounded=0;orthogonalLoop=1;jettySize=auto;html=1;exitX=1;exitY=0.5;exitDx=0;exitDy=0;entryX=0;entryY=0.5;entryDx=0;entryDy=0;" parent="nilfGd-R48GBVORvdBlC-1" source="nilfGd-R48GBVORvdBlC-7" target="nilfGd-R48GBVORvdBlC-15" edge="1">
          <mxGeometry relative="1" as="geometry">
            <Array as="points">
              <mxPoint x="880" y="-52" />
            </Array>
          </mxGeometry>
        </mxCell>
        <mxCell id="46o_ksrozuxmIPPl0I-C-2" value="&lt;font style=&quot;font-size: 14px;&quot; face=&quot;Verdana&quot;&gt;Vehicle Final Condition Details&lt;/font&gt;" style="edgeLabel;html=1;align=center;verticalAlign=middle;resizable=0;points=[];" parent="46o_ksrozuxmIPPl0I-C-1" vertex="1" connectable="0">
          <mxGeometry x="0.1341" y="2" relative="1" as="geometry">
            <mxPoint x="18" y="-16" as="offset" />
          </mxGeometry>
        </mxCell>
        <mxCell id="46o_ksrozuxmIPPl0I-C-6" style="edgeStyle=orthogonalEdgeStyle;rounded=0;orthogonalLoop=1;jettySize=auto;html=1;exitX=1;exitY=0.5;exitDx=0;exitDy=0;entryX=1;entryY=0.5;entryDx=0;entryDy=0;" parent="nilfGd-R48GBVORvdBlC-1" source="nilfGd-R48GBVORvdBlC-15" target="nilfGd-R48GBVORvdBlC-18" edge="1">
          <mxGeometry relative="1" as="geometry">
            <Array as="points">
              <mxPoint x="1120" y="-52" />
              <mxPoint x="1120" y="-220" />
            </Array>
          </mxGeometry>
        </mxCell>
        <mxCell id="46o_ksrozuxmIPPl0I-C-7" value="&lt;font style=&quot;font-size: 14px;&quot;&gt;Reservatio Number,Date and Time Query&lt;/font&gt;" style="edgeLabel;html=1;align=center;verticalAlign=middle;resizable=0;points=[];" parent="46o_ksrozuxmIPPl0I-C-6" vertex="1" connectable="0">
          <mxGeometry x="0.1443" y="-5" relative="1" as="geometry">
            <mxPoint x="-5" y="-28" as="offset" />
          </mxGeometry>
        </mxCell>
        <mxCell id="46o_ksrozuxmIPPl0I-C-12" style="edgeStyle=orthogonalEdgeStyle;rounded=0;orthogonalLoop=1;jettySize=auto;html=1;exitX=1;exitY=0;exitDx=0;exitDy=0;entryX=1.064;entryY=1.016;entryDx=0;entryDy=0;entryPerimeter=0;" parent="nilfGd-R48GBVORvdBlC-1" source="nilfGd-R48GBVORvdBlC-18" target="nilfGd-R48GBVORvdBlC-15" edge="1">
          <mxGeometry relative="1" as="geometry">
            <Array as="points">
              <mxPoint x="1080" y="-280" />
              <mxPoint x="1320" y="-280" />
              <mxPoint x="1320" y="2" />
            </Array>
          </mxGeometry>
        </mxCell>
        <mxCell id="46o_ksrozuxmIPPl0I-C-13" value="&lt;font style=&quot;font-size: 14px;&quot; face=&quot;Verdana&quot;&gt;Verified&lt;/font&gt;" style="edgeLabel;html=1;align=center;verticalAlign=middle;resizable=0;points=[];" parent="46o_ksrozuxmIPPl0I-C-12" vertex="1" connectable="0">
          <mxGeometry x="-0.0649" y="3" relative="1" as="geometry">
            <mxPoint x="-1" as="offset" />
          </mxGeometry>
        </mxCell>
        <mxCell id="46o_ksrozuxmIPPl0I-C-31" value="" style="edgeStyle=orthogonalEdgeStyle;rounded=0;orthogonalLoop=1;jettySize=auto;html=1;" parent="nilfGd-R48GBVORvdBlC-1" source="46o_ksrozuxmIPPl0I-C-14" target="46o_ksrozuxmIPPl0I-C-29" edge="1">
          <mxGeometry relative="1" as="geometry">
            <Array as="points">
              <mxPoint x="1440" y="640" />
            </Array>
          </mxGeometry>
        </mxCell>
        <mxCell id="46o_ksrozuxmIPPl0I-C-34" value="&lt;font style=&quot;font-size: 14px;&quot; face=&quot;Verdana&quot;&gt;Vehicle Detail&lt;/font&gt;&lt;div&gt;&lt;font style=&quot;font-size: 14px;&quot; face=&quot;Verdana&quot;&gt;Mileage,Gas Level&lt;/font&gt;&lt;/div&gt;&lt;div&gt;&lt;font face=&quot;Verdana&quot;&gt;&lt;span style=&quot;font-size: 14px;&quot;&gt;Return Date&lt;/span&gt;&lt;/font&gt;&lt;/div&gt;" style="edgeLabel;html=1;align=center;verticalAlign=middle;resizable=0;points=[];" parent="46o_ksrozuxmIPPl0I-C-31" vertex="1" connectable="0">
          <mxGeometry x="-0.5177" y="3" relative="1" as="geometry">
            <mxPoint x="-3" y="1" as="offset" />
          </mxGeometry>
        </mxCell>
        <mxCell id="46o_ksrozuxmIPPl0I-C-14" value="&lt;font style=&quot;font-size: 24px;&quot;&gt;3.3&lt;/font&gt;" style="swimlane;html=1;fontStyle=0;childLayout=stackLayout;horizontal=1;startSize=26;fillColor=#e0e0e0;horizontalStack=0;resizeParent=1;resizeLast=0;collapsible=1;marginBottom=0;swimlaneFillColor=#ffffff;align=center;rounded=1;shadow=0;comic=0;labelBackgroundColor=none;strokeWidth=1;fontFamily=Verdana;fontSize=12;arcSize=50;" parent="nilfGd-R48GBVORvdBlC-1" vertex="1">
          <mxGeometry x="1380" y="200" width="130" height="150" as="geometry" />
        </mxCell>
        <mxCell id="46o_ksrozuxmIPPl0I-C-15" value="&lt;font style=&quot;font-size: 14px;&quot;&gt;&lt;br&gt;&lt;br&gt;LOG MILEAGE AND GAS LEVELS&lt;/font&gt;" style="text;html=1;strokeColor=none;fillColor=none;spacingLeft=4;spacingRight=4;whiteSpace=wrap;overflow=hidden;rotatable=0;points=[[0,0.5],[1,0.5]];portConstraint=eastwest;align=center;" parent="46o_ksrozuxmIPPl0I-C-14" vertex="1">
          <mxGeometry y="26" width="130" height="104" as="geometry" />
        </mxCell>
        <mxCell id="46o_ksrozuxmIPPl0I-C-26" value="&lt;font style=&quot;font-size: 18px;&quot;&gt;VEHICLE DETAILS&lt;/font&gt;" style="shape=partialRectangle;whiteSpace=wrap;html=1;left=0;right=0;fillColor=none;fontSize=14;" parent="nilfGd-R48GBVORvdBlC-1" vertex="1">
          <mxGeometry x="850" y="270" width="360" height="80" as="geometry" />
        </mxCell>
        <mxCell id="46o_ksrozuxmIPPl0I-C-27" value="" style="line;strokeWidth=2;direction=south;html=1;" parent="nilfGd-R48GBVORvdBlC-1" vertex="1">
          <mxGeometry x="900" y="270" width="10" height="80" as="geometry" />
        </mxCell>
        <mxCell id="46o_ksrozuxmIPPl0I-C-28" value="&lt;font style=&quot;font-size: 18px;&quot;&gt;DS1&lt;/font&gt;" style="text;html=1;align=center;verticalAlign=middle;whiteSpace=wrap;rounded=0;" parent="nilfGd-R48GBVORvdBlC-1" vertex="1">
          <mxGeometry x="850" y="295" width="60" height="30" as="geometry" />
        </mxCell>
        <mxCell id="46o_ksrozuxmIPPl0I-C-44" value="" style="edgeStyle=orthogonalEdgeStyle;rounded=0;orthogonalLoop=1;jettySize=auto;html=1;" parent="nilfGd-R48GBVORvdBlC-1" source="46o_ksrozuxmIPPl0I-C-29" target="46o_ksrozuxmIPPl0I-C-42" edge="1">
          <mxGeometry relative="1" as="geometry" />
        </mxCell>
        <mxCell id="46o_ksrozuxmIPPl0I-C-29" value="&lt;font style=&quot;font-size: 24px;&quot;&gt;3.4&lt;/font&gt;" style="swimlane;html=1;fontStyle=0;childLayout=stackLayout;horizontal=1;startSize=26;fillColor=#e0e0e0;horizontalStack=0;resizeParent=1;resizeLast=0;collapsible=1;marginBottom=0;swimlaneFillColor=#ffffff;align=center;rounded=1;shadow=0;comic=0;labelBackgroundColor=none;strokeWidth=1;fontFamily=Verdana;fontSize=12;arcSize=50;" parent="nilfGd-R48GBVORvdBlC-1" vertex="1">
          <mxGeometry x="1130" y="565" width="130" height="150" as="geometry" />
        </mxCell>
        <mxCell id="46o_ksrozuxmIPPl0I-C-30" value="&lt;font style=&quot;font-size: 14px;&quot;&gt;&lt;br&gt;&lt;br&gt;CALCULATE ADDITIONAL CHARGES&lt;/font&gt;" style="text;html=1;strokeColor=none;fillColor=none;spacingLeft=4;spacingRight=4;whiteSpace=wrap;overflow=hidden;rotatable=0;points=[[0,0.5],[1,0.5]];portConstraint=eastwest;align=center;" parent="46o_ksrozuxmIPPl0I-C-29" vertex="1">
          <mxGeometry y="26" width="130" height="104" as="geometry" />
        </mxCell>
        <mxCell id="46o_ksrozuxmIPPl0I-C-32" style="edgeStyle=orthogonalEdgeStyle;rounded=0;orthogonalLoop=1;jettySize=auto;html=1;exitX=0;exitY=0.5;exitDx=0;exitDy=0;entryX=0.25;entryY=0;entryDx=0;entryDy=0;" parent="nilfGd-R48GBVORvdBlC-1" source="46o_ksrozuxmIPPl0I-C-15" target="46o_ksrozuxmIPPl0I-C-26" edge="1">
          <mxGeometry relative="1" as="geometry">
            <Array as="points">
              <mxPoint x="1380" y="250" />
              <mxPoint x="940" y="250" />
            </Array>
          </mxGeometry>
        </mxCell>
        <mxCell id="46o_ksrozuxmIPPl0I-C-33" value="&lt;font style=&quot;font-size: 14px;&quot; face=&quot;Verdana&quot;&gt;Update Mileage&lt;/font&gt;" style="edgeLabel;html=1;align=center;verticalAlign=middle;resizable=0;points=[];" parent="46o_ksrozuxmIPPl0I-C-32" vertex="1" connectable="0">
          <mxGeometry x="0.0847" relative="1" as="geometry">
            <mxPoint as="offset" />
          </mxGeometry>
        </mxCell>
        <mxCell id="46o_ksrozuxmIPPl0I-C-37" value="&lt;font style=&quot;font-size: 18px;&quot;&gt;RESERVATION&lt;/font&gt;" style="shape=partialRectangle;whiteSpace=wrap;html=1;left=0;right=0;fillColor=none;fontSize=14;" parent="nilfGd-R48GBVORvdBlC-1" vertex="1">
          <mxGeometry x="470" y="270" width="340" height="80" as="geometry" />
        </mxCell>
        <mxCell id="46o_ksrozuxmIPPl0I-C-38" value="" style="line;strokeWidth=2;direction=south;html=1;" parent="nilfGd-R48GBVORvdBlC-1" vertex="1">
          <mxGeometry x="510" y="270" width="10" height="80" as="geometry" />
        </mxCell>
        <mxCell id="46o_ksrozuxmIPPl0I-C-39" value="" style="line;strokeWidth=2;direction=south;html=1;" parent="nilfGd-R48GBVORvdBlC-1" vertex="1">
          <mxGeometry x="460" y="270" width="20" height="80" as="geometry" />
        </mxCell>
        <mxCell id="46o_ksrozuxmIPPl0I-C-40" value="&lt;span style=&quot;font-size: 18px;&quot;&gt;DS3&amp;nbsp;&lt;/span&gt;" style="text;html=1;align=center;verticalAlign=middle;whiteSpace=wrap;rounded=0;" parent="nilfGd-R48GBVORvdBlC-1" vertex="1">
          <mxGeometry x="470" y="295" width="60" height="30" as="geometry" />
        </mxCell>
        <mxCell id="46o_ksrozuxmIPPl0I-C-53" value="" style="edgeStyle=orthogonalEdgeStyle;rounded=0;orthogonalLoop=1;jettySize=auto;html=1;" parent="nilfGd-R48GBVORvdBlC-1" source="46o_ksrozuxmIPPl0I-C-42" target="46o_ksrozuxmIPPl0I-C-51" edge="1">
          <mxGeometry relative="1" as="geometry" />
        </mxCell>
        <mxCell id="46o_ksrozuxmIPPl0I-C-54" value="&lt;font style=&quot;font-size: 14px;&quot; face=&quot;Verdana&quot;&gt;Vehicle Details&lt;/font&gt;" style="edgeLabel;html=1;align=center;verticalAlign=middle;resizable=0;points=[];" parent="46o_ksrozuxmIPPl0I-C-53" vertex="1" connectable="0">
          <mxGeometry x="0.3915" y="8" relative="1" as="geometry">
            <mxPoint x="-20" y="-18" as="offset" />
          </mxGeometry>
        </mxCell>
        <mxCell id="46o_ksrozuxmIPPl0I-C-42" value="&lt;font style=&quot;font-size: 24px;&quot;&gt;3.5&lt;/font&gt;" style="swimlane;html=1;fontStyle=0;childLayout=stackLayout;horizontal=1;startSize=26;fillColor=#e0e0e0;horizontalStack=0;resizeParent=1;resizeLast=0;collapsible=1;marginBottom=0;swimlaneFillColor=#ffffff;align=center;rounded=1;shadow=0;comic=0;labelBackgroundColor=none;strokeWidth=1;fontFamily=Verdana;fontSize=12;arcSize=50;" parent="nilfGd-R48GBVORvdBlC-1" vertex="1">
          <mxGeometry x="800" y="565" width="130" height="150" as="geometry" />
        </mxCell>
        <mxCell id="46o_ksrozuxmIPPl0I-C-43" value="&lt;font style=&quot;font-size: 14px;&quot;&gt;&lt;br&gt;&lt;br&gt;UPDATE RETURN INFO&lt;/font&gt;" style="text;html=1;strokeColor=none;fillColor=none;spacingLeft=4;spacingRight=4;whiteSpace=wrap;overflow=hidden;rotatable=0;points=[[0,0.5],[1,0.5]];portConstraint=eastwest;align=center;" parent="46o_ksrozuxmIPPl0I-C-42" vertex="1">
          <mxGeometry y="26" width="130" height="110" as="geometry" />
        </mxCell>
        <mxCell id="46o_ksrozuxmIPPl0I-C-45" style="edgeStyle=orthogonalEdgeStyle;rounded=0;orthogonalLoop=1;jettySize=auto;html=1;exitX=0;exitY=0.5;exitDx=0;exitDy=0;entryX=0.75;entryY=1;entryDx=0;entryDy=0;" parent="nilfGd-R48GBVORvdBlC-1" source="46o_ksrozuxmIPPl0I-C-30" target="46o_ksrozuxmIPPl0I-C-37" edge="1">
          <mxGeometry relative="1" as="geometry">
            <Array as="points">
              <mxPoint x="1130" y="400" />
              <mxPoint x="725" y="400" />
            </Array>
          </mxGeometry>
        </mxCell>
        <mxCell id="46o_ksrozuxmIPPl0I-C-46" value="&lt;font style=&quot;font-size: 14px;&quot; face=&quot;Verdana&quot;&gt;Extra Charges&lt;/font&gt;" style="edgeLabel;html=1;align=center;verticalAlign=middle;resizable=0;points=[];" parent="46o_ksrozuxmIPPl0I-C-45" vertex="1" connectable="0">
          <mxGeometry x="0.3171" relative="1" as="geometry">
            <mxPoint as="offset" />
          </mxGeometry>
        </mxCell>
        <mxCell id="46o_ksrozuxmIPPl0I-C-48" style="edgeStyle=orthogonalEdgeStyle;rounded=0;orthogonalLoop=1;jettySize=auto;html=1;exitX=0;exitY=0.5;exitDx=0;exitDy=0;entryX=0.5;entryY=1;entryDx=0;entryDy=0;" parent="nilfGd-R48GBVORvdBlC-1" source="46o_ksrozuxmIPPl0I-C-43" target="46o_ksrozuxmIPPl0I-C-37" edge="1">
          <mxGeometry relative="1" as="geometry">
            <Array as="points">
              <mxPoint x="800" y="640" />
              <mxPoint x="640" y="640" />
            </Array>
          </mxGeometry>
        </mxCell>
        <mxCell id="46o_ksrozuxmIPPl0I-C-50" value="&lt;font style=&quot;font-size: 14px;&quot; face=&quot;Verdana&quot;&gt;Update Inventory&amp;nbsp;&lt;/font&gt;" style="edgeLabel;html=1;align=center;verticalAlign=middle;resizable=0;points=[];" parent="46o_ksrozuxmIPPl0I-C-48" vertex="1" connectable="0">
          <mxGeometry x="0.4444" y="-1" relative="1" as="geometry">
            <mxPoint y="1" as="offset" />
          </mxGeometry>
        </mxCell>
        <mxCell id="46o_ksrozuxmIPPl0I-C-65" value="" style="edgeStyle=orthogonalEdgeStyle;rounded=0;orthogonalLoop=1;jettySize=auto;html=1;" parent="nilfGd-R48GBVORvdBlC-1" source="46o_ksrozuxmIPPl0I-C-51" target="46o_ksrozuxmIPPl0I-C-63" edge="1">
          <mxGeometry relative="1" as="geometry">
            <Array as="points">
              <mxPoint x="-335" y="650" />
            </Array>
          </mxGeometry>
        </mxCell>
        <mxCell id="46o_ksrozuxmIPPl0I-C-66" value="&lt;font style=&quot;font-size: 14px;&quot; face=&quot;Verdana&quot;&gt;Vehcile Details&lt;/font&gt;" style="edgeLabel;html=1;align=center;verticalAlign=middle;resizable=0;points=[];" parent="46o_ksrozuxmIPPl0I-C-65" vertex="1" connectable="0">
          <mxGeometry x="-0.2226" y="2" relative="1" as="geometry">
            <mxPoint as="offset" />
          </mxGeometry>
        </mxCell>
        <mxCell id="46o_ksrozuxmIPPl0I-C-51" value="&lt;font style=&quot;font-size: 24px;&quot;&gt;3.6&lt;/font&gt;" style="swimlane;html=1;fontStyle=0;childLayout=stackLayout;horizontal=1;startSize=26;fillColor=#e0e0e0;horizontalStack=0;resizeParent=1;resizeLast=0;collapsible=1;marginBottom=0;swimlaneFillColor=#ffffff;align=center;rounded=1;shadow=0;comic=0;labelBackgroundColor=none;strokeWidth=1;fontFamily=Verdana;fontSize=12;arcSize=50;" parent="nilfGd-R48GBVORvdBlC-1" vertex="1">
          <mxGeometry x="240" y="565" width="130" height="150" as="geometry" />
        </mxCell>
        <mxCell id="46o_ksrozuxmIPPl0I-C-52" value="&lt;font style=&quot;font-size: 14px;&quot;&gt;&lt;br&gt;&lt;br&gt;UPDATE VEHCILE AVAILABILITY&lt;/font&gt;" style="text;html=1;strokeColor=none;fillColor=none;spacingLeft=4;spacingRight=4;whiteSpace=wrap;overflow=hidden;rotatable=0;points=[[0,0.5],[1,0.5]];portConstraint=eastwest;align=center;" parent="46o_ksrozuxmIPPl0I-C-51" vertex="1">
          <mxGeometry y="26" width="130" height="110" as="geometry" />
        </mxCell>
        <mxCell id="46o_ksrozuxmIPPl0I-C-55" value="&lt;font style=&quot;font-size: 18px;&quot;&gt;VEHICLE DETAILS&lt;/font&gt;" style="shape=partialRectangle;whiteSpace=wrap;html=1;left=0;right=0;fillColor=none;fontSize=14;" parent="nilfGd-R48GBVORvdBlC-1" vertex="1">
          <mxGeometry x="40" y="270" width="360" height="80" as="geometry" />
        </mxCell>
        <mxCell id="46o_ksrozuxmIPPl0I-C-56" value="" style="line;strokeWidth=2;direction=south;html=1;" parent="nilfGd-R48GBVORvdBlC-1" vertex="1">
          <mxGeometry x="90" y="270" width="10" height="80" as="geometry" />
        </mxCell>
        <mxCell id="46o_ksrozuxmIPPl0I-C-57" value="&lt;font style=&quot;font-size: 18px;&quot;&gt;DS1&lt;/font&gt;" style="text;html=1;align=center;verticalAlign=middle;whiteSpace=wrap;rounded=0;" parent="nilfGd-R48GBVORvdBlC-1" vertex="1">
          <mxGeometry x="40" y="295" width="60" height="30" as="geometry" />
        </mxCell>
        <mxCell id="46o_ksrozuxmIPPl0I-C-59" value="" style="line;strokeWidth=2;direction=south;html=1;" parent="nilfGd-R48GBVORvdBlC-1" vertex="1">
          <mxGeometry x="40" y="270" width="10" height="80" as="geometry" />
        </mxCell>
        <mxCell id="46o_ksrozuxmIPPl0I-C-61" style="edgeStyle=orthogonalEdgeStyle;rounded=0;orthogonalLoop=1;jettySize=auto;html=1;exitX=0;exitY=0.5;exitDx=0;exitDy=0;entryX=0.25;entryY=1;entryDx=0;entryDy=0;" parent="nilfGd-R48GBVORvdBlC-1" source="46o_ksrozuxmIPPl0I-C-52" target="46o_ksrozuxmIPPl0I-C-55" edge="1">
          <mxGeometry relative="1" as="geometry">
            <Array as="points">
              <mxPoint x="240" y="650" />
              <mxPoint x="130" y="650" />
            </Array>
          </mxGeometry>
        </mxCell>
        <mxCell id="46o_ksrozuxmIPPl0I-C-62" value="&lt;font style=&quot;font-size: 14px;&quot; face=&quot;Verdana&quot;&gt;Update Inventory Details&lt;/font&gt;" style="edgeLabel;html=1;align=center;verticalAlign=middle;resizable=0;points=[];" parent="46o_ksrozuxmIPPl0I-C-61" vertex="1" connectable="0">
          <mxGeometry x="0.5033" y="-2" relative="1" as="geometry">
            <mxPoint as="offset" />
          </mxGeometry>
        </mxCell>
        <mxCell id="46o_ksrozuxmIPPl0I-C-63" value="&lt;font style=&quot;font-size: 24px;&quot;&gt;3.7&lt;/font&gt;" style="swimlane;html=1;fontStyle=0;childLayout=stackLayout;horizontal=1;startSize=26;fillColor=#e0e0e0;horizontalStack=0;resizeParent=1;resizeLast=0;collapsible=1;marginBottom=0;swimlaneFillColor=#ffffff;align=center;rounded=1;shadow=0;comic=0;labelBackgroundColor=none;strokeWidth=1;fontFamily=Verdana;fontSize=12;arcSize=50;" parent="nilfGd-R48GBVORvdBlC-1" vertex="1">
          <mxGeometry x="-400" y="226" width="130" height="150" as="geometry" />
        </mxCell>
        <mxCell id="46o_ksrozuxmIPPl0I-C-64" value="&lt;font style=&quot;font-size: 14px;&quot;&gt;&lt;br&gt;&lt;br&gt;RETURN RECEIPT&lt;/font&gt;" style="text;html=1;strokeColor=none;fillColor=none;spacingLeft=4;spacingRight=4;whiteSpace=wrap;overflow=hidden;rotatable=0;points=[[0,0.5],[1,0.5]];portConstraint=eastwest;align=center;" parent="46o_ksrozuxmIPPl0I-C-63" vertex="1">
          <mxGeometry y="26" width="130" height="110" as="geometry" />
        </mxCell>
        <mxCell id="46o_ksrozuxmIPPl0I-C-67" style="edgeStyle=orthogonalEdgeStyle;rounded=0;orthogonalLoop=1;jettySize=auto;html=1;exitX=1;exitY=0.5;exitDx=0;exitDy=0;entryX=0;entryY=0.5;entryDx=0;entryDy=0;" parent="nilfGd-R48GBVORvdBlC-1" source="46o_ksrozuxmIPPl0I-C-64" target="nilfGd-R48GBVORvdBlC-8" edge="1">
          <mxGeometry relative="1" as="geometry" />
        </mxCell>
        <mxCell id="46o_ksrozuxmIPPl0I-C-68" value="&lt;font style=&quot;font-size: 14px;&quot; face=&quot;Verdana&quot;&gt;Receipt&lt;/font&gt;" style="edgeLabel;html=1;align=center;verticalAlign=middle;resizable=0;points=[];" parent="46o_ksrozuxmIPPl0I-C-67" vertex="1" connectable="0">
          <mxGeometry x="0.0959" relative="1" as="geometry">
            <mxPoint y="1" as="offset" />
          </mxGeometry>
        </mxCell>
        <mxCell id="46o_ksrozuxmIPPl0I-C-71" value="&lt;font style=&quot;font-size: 14px;&quot;&gt;Vehicle Details&lt;/font&gt;" style="text;html=1;align=center;verticalAlign=middle;resizable=0;points=[];autosize=1;strokeColor=none;fillColor=none;" parent="nilfGd-R48GBVORvdBlC-1" vertex="1">
          <mxGeometry x="980" y="638" width="120" height="30" as="geometry" />
        </mxCell>
      </root>
    </mxGraphModel>
  </diagram>
</mxfile>
